<svg width="209" height="64" viewBox="0 0 209 64" fill="none" xmlns="http://www.w3.org/2000/svg">
<path d="M202.827 6.336V4.66933H203.777C204.326 4.66933 204.943 4.82667 204.943 5.46711C204.943 6.17468 204.26 6.336 203.647 6.336H202.827ZM201.778 9.63024H202.827V7.1858H203.594L204.943 9.63024H206.215L204.643 7.06933C205.467 6.8858 205.991 6.336 205.991 5.48933C205.991 4.23422 204.916 3.77468 203.798 3.77468H201.778V9.63024ZM199.432 6.72622C199.432 4.30044 201.388 2.33957 203.787 2.33957C206.215 2.33957 208.18 4.30044 208.18 6.72622C208.18 9.12489 206.215 11.1174 203.787 11.1174C201.388 11.1174 199.432 9.12489 199.432 6.72622ZM198.61 6.72622C198.61 9.60978 200.933 11.8653 203.787 11.8653C206.675 11.8653 209 9.60978 209 6.72622C209 3.84533 206.675 1.54311 203.787 1.54311C200.933 1.54311 198.61 3.84533 198.61 6.72622ZM123.126 62.4507H137.87V1.54311H123.126V62.4507ZM117.253 1.54311H101.052L86.9919 45.5573L72.679 1.54311H56.2189L79.1933 62.4507H93.855L117.253 1.54311ZM65.1642 62.4507L40.3374 1.54311H25.7337L0 62.4507H16.2182L20.669 50.4956H44.1707L48.8831 62.4507H65.1642ZM40.1349 38.712H24.8793L32.5879 17.8062L40.1349 38.712ZM183.615 16.7422C179.758 13.2711 176.231 12.1253 172.46 12.1253C168.688 12.1253 163.97 13.4205 163.97 18.2379C163.97 22.2752 167.575 23.6441 173.322 25.4592C181.551 28.1268 192.18 31.5721 192.18 43.7004C192.18 57.7195 180.949 64 168.948 64C160.287 64 151.538 60.8196 146.227 55.2258L155.216 45.9698C158.797 49.8379 164.143 51.8716 168.948 51.8716C173.402 51.8716 177.349 50.144 177.349 45.2466C177.349 40.6009 172.714 39.0471 164.744 36.456C157.034 33.9644 149.23 30.1022 149.23 19.0983C149.23 5.59067 161.403 0 172.714 0C179.577 0 187.294 2.58444 192.607 7.47867L183.615 16.7422Z" fill="#D20F2F"/>
</svg>
