<svg width="170" height="32" viewBox="0 0 170 32" fill="none" xmlns="http://www.w3.org/2000/svg">
<path fill-rule="evenodd" clip-rule="evenodd" d="M26.1054 18.9638C26.1054 12.2774 21.0591 6.79889 14.5751 6.04033V5.89986C15.5617 5.36606 16.2101 4.32656 16.2101 3.14659C16.2101 1.40473 14.8006 0 13.0527 0C11.3048 0 9.89527 1.40473 9.89527 3.14659C9.89527 4.32656 10.5437 5.36606 11.5022 5.89986V6.06842C5.01809 6.79888 0 12.3054 0 18.9638C0 26.1561 5.83565 31.9716 13.0527 31.9716C20.2697 31.9716 26.1054 26.1561 26.1054 18.9638ZM14.998 3.11849C14.998 3.65229 14.7724 4.12991 14.4341 4.49513C14.2086 3.98943 13.6729 3.6242 13.0527 3.59611C12.4325 3.59611 11.925 3.93324 11.6714 4.46704C11.333 4.12991 11.1075 3.65229 11.1075 3.11849C11.1075 2.05089 11.9815 1.17997 13.0527 1.17997C14.124 1.17997 14.998 2.05089 14.998 3.11849ZM13.0527 11.4345C17.225 11.4345 20.608 14.8059 20.608 18.9638C20.608 23.1218 17.225 26.4932 13.0527 26.4932C8.88035 26.4932 5.49735 23.1218 5.49735 18.9638C5.49735 14.8059 8.88035 11.4345 13.0527 11.4345ZM18.2963 11.7155C17.1968 10.9288 15.8718 10.3669 14.4623 10.1422C14.0112 10.0579 13.6729 9.6646 13.6729 9.21508V8.90597C13.6729 8.68125 13.7575 8.48461 13.9267 8.34414C14.0958 8.20366 14.2931 8.14742 14.5187 8.17558C16.4639 8.42837 18.2399 9.18693 19.7059 10.3108C19.875 10.4512 19.9596 10.6198 19.9878 10.8445C19.9878 11.0412 19.9314 11.2379 19.7623 11.4064L19.5367 11.6312C19.1984 11.9403 18.6909 11.9964 18.2963 11.7155ZM20.4107 12.5022L20.6362 12.2774C20.7771 12.1088 20.9745 12.0526 21.2282 12.0807C21.4538 12.0807 21.6229 12.193 21.7639 12.3617C22.8915 13.8507 23.6527 15.6205 23.9064 17.531C23.9346 17.7558 23.8782 17.9524 23.7373 18.121C23.5963 18.2895 23.399 18.3739 23.1734 18.3739H22.8633C22.3841 18.3739 21.9894 18.0367 21.9048 17.5591C21.6793 16.1544 21.1437 14.834 20.3261 13.7383C20.0441 13.345 20.0724 12.8393 20.4107 12.5022ZM22.8351 19.5819H23.1452C23.3708 19.5819 23.5681 19.6662 23.6809 19.8629C23.8219 20.0314 23.8782 20.2281 23.8501 20.4529C23.5963 22.3914 22.8351 24.1613 21.7074 25.6222C21.5665 25.7908 21.3973 25.8751 21.1718 25.9032C20.9745 25.9032 20.7771 25.847 20.608 25.6784L20.3825 25.4537C20.0724 25.1166 20.016 24.6108 20.2979 24.2175C21.0872 23.1218 21.6511 21.8014 21.8767 20.3966C21.9612 19.919 22.3559 19.5819 22.8351 19.5819ZM19.5367 26.2966L19.7623 26.5213C19.9314 26.6617 19.9878 26.8584 19.9596 27.1113C19.9596 27.3361 19.8468 27.5046 19.6777 27.6451C18.1835 28.7688 16.4074 29.5274 14.4905 29.7803C14.265 29.8083 14.0677 29.7522 13.8984 29.6117C13.7293 29.4712 13.6448 29.2746 13.6448 29.0498V28.7408C13.6448 28.2632 13.983 27.8698 14.4623 27.7856C15.8718 27.5608 17.1686 27.0269 18.2963 26.2122C18.6909 25.9313 19.1984 25.9594 19.5367 26.2966ZM12.4325 28.7127V29.0217C12.4325 29.2464 12.3479 29.4432 12.1506 29.5555C11.9815 29.6959 11.7841 29.7522 11.5586 29.724C9.61334 29.4712 7.83725 28.7127 6.37129 27.5889C6.20214 27.4484 6.11757 27.2798 6.08937 27.0551C6.08937 26.8584 6.14576 26.6617 6.31491 26.4932L6.54044 26.2684C6.87874 25.9594 7.38618 25.9032 7.78086 26.1842C8.88035 26.9708 10.2054 27.5327 11.6149 27.7574C12.0942 27.8417 12.4325 28.2351 12.4325 28.7127ZM5.69469 25.4256L5.46916 25.6503C5.3282 25.7908 5.13086 25.8751 4.87714 25.847C4.65161 25.847 4.48245 25.7346 4.3415 25.5661C3.21384 24.0771 2.45266 22.3071 2.19894 20.3966C2.17075 20.1719 2.22713 19.9752 2.36809 19.8066C2.50905 19.6381 2.70639 19.5538 2.93192 19.5538H3.24203C3.72129 19.5538 4.11597 19.891 4.20055 20.3685C4.42608 21.7732 4.96171 23.0937 5.77927 24.1894C6.06118 24.5827 6.03299 25.0885 5.69469 25.4256ZM3.27022 18.3457H2.96011C2.73458 18.3457 2.53724 18.2615 2.42447 18.0648C2.28351 17.8962 2.22713 17.6995 2.25532 17.4748C2.50905 15.5363 3.27022 13.7664 4.39789 12.3054C4.53883 12.1369 4.70798 12.0526 4.93352 12.0245C5.13086 12.0245 5.3282 12.0807 5.49735 12.2493L5.72288 12.474C6.033 12.8112 6.08937 13.3169 5.80746 13.7102C5.01809 14.8059 4.45427 16.1263 4.22873 17.531C4.14416 18.0086 3.74948 18.3457 3.27022 18.3457ZM6.56863 11.6312L6.3431 11.4064C6.17395 11.2659 6.11757 11.0693 6.14576 10.8164C6.14576 10.5917 6.25853 10.4232 6.42768 10.2827C7.92182 9.15885 9.69795 8.4003 11.6149 8.14742C11.8405 8.11934 12.0378 8.17558 12.207 8.31598C12.3761 8.45645 12.4607 8.65317 12.4607 8.87789V9.18693C12.4607 9.66452 12.1224 10.0579 11.6431 10.1422C10.2336 10.3669 8.90853 10.9007 7.80906 11.7155C7.41438 11.9964 6.90693 11.9683 6.56863 11.6312ZM155.92 6.79948C155.92 4.58001 152.142 3.93384 150.395 3.93384C146.223 3.93384 143.008 7.08043 143.037 11.3508C143.037 15.565 146.166 18.8801 150.508 18.8801C152.509 18.8801 156.146 18.1778 156.146 16.0426V14.2727H154.229V15.3964C154.229 16.7169 151.635 17.082 150.62 17.082C147.463 17.082 145.123 14.6379 145.123 11.2384C145.123 7.97946 147.378 5.7038 150.479 5.7038C151.804 5.7038 154.003 6.1814 154.003 7.44566V8.56949H155.92V6.79948ZM49.2802 17.001H47.476L47.5042 18.6024H53.2271V17.001H51.3664V8.37598C51.3947 7.92645 51.2819 7.22409 51.2819 7.22409H51.3383C51.3383 7.22409 51.5638 7.84217 51.8175 8.26366L58.9219 18.6024H60.9234V5.76318H62.7277V4.18988H57.0048V5.76318H58.8372V14.3881C58.8372 14.8377 58.95 15.54 58.95 15.54H58.8936C58.8936 15.54 58.6681 14.922 58.4143 14.5005L51.3101 4.16178H47.476V5.73508H49.2802V17.001ZM36.3349 16.9986H34.5307V18.6H45.3281V15.2005H43.552V16.9143H38.3648V12.1664H43.4956V10.4807H38.3648V5.8451H43.2137V7.53077H44.9898V4.18752H34.5307V5.76082H36.3349V16.9986ZM64.6455 17.001H66.4497V5.73508H64.6455V4.16178H70.8194C72.0317 4.16178 72.9338 4.21797 73.8923 4.49892C76.655 5.36985 78.4593 7.84217 78.4593 11.3539C78.4593 14.8377 76.7115 17.2819 73.8923 18.181C72.962 18.49 71.9752 18.5742 70.8476 18.5742H64.6455V17.001ZM70.7066 16.9167C71.6369 16.9167 72.4263 16.8324 73.1593 16.5515C75.1045 15.8772 76.3167 14.0229 76.3167 11.3821C76.3167 8.74125 75.1045 6.85886 73.1875 6.18459C72.3981 5.90365 71.6369 5.84745 70.7066 5.84745H68.4795V16.9167H70.7066ZM80.0588 5.76318H81.891L81.8629 13.2082C81.8629 14.5849 82.1447 15.7929 82.8214 16.72C83.808 18.0405 85.5275 18.8271 87.5858 18.8271C89.5589 18.8271 91.3073 18.0967 92.2939 16.72C92.9425 15.821 93.3086 14.5849 93.3086 13.2082V5.73508H95.1132V4.16178H89.4465V5.73508H91.2792V13.1801C91.2792 14.1353 91.0536 14.922 90.7149 15.512C90.0952 16.4953 88.9673 17.0291 87.5858 17.0291C86.2042 17.0291 85.0764 16.4953 84.4847 15.5681C84.1179 14.9781 83.9212 14.1353 83.9212 13.2082V5.76318H85.7531V4.18988H80.0588V5.76318ZM96.8359 17.001H98.6396V5.73508H96.8359V4.16178H103.094C104.109 4.16178 104.955 4.18988 105.744 4.47082C107.267 4.97652 108.253 6.24078 108.253 8.20742C108.253 10.2864 107.097 11.7754 105.265 12.253V12.281C105.265 12.281 105.632 12.4778 105.885 12.9554L107.944 16.4953C108.169 16.8886 108.423 16.9729 108.958 16.9729H109.381V18.5742H108.14C106.9 18.5742 106.618 18.3495 106.139 17.4786L103.912 13.5454C103.545 12.9273 103.263 12.7587 102.389 12.7587H100.67V16.9729H102.445V18.5742H96.8078L96.8359 17.001ZM103.601 11.1012C105.18 11.1012 106.223 10.0898 106.223 8.37598C106.223 7.25218 105.772 6.46554 104.871 6.10031C104.391 5.90365 103.771 5.84745 103.094 5.84745H100.698V11.1012H103.601ZM111.751 17.001H110.369V18.6024H115.387V17.001H113.837L114.964 13.7981H120.096L121.222 17.001H119.672V18.6024H124.69V17.001H123.308L118.686 4.16178H116.374L111.751 17.001ZM117.812 7.1679L119.588 12.1687H115.472L117.248 7.1679C117.446 6.57793 117.502 6.07221 117.502 6.07221H117.558C117.558 6.07221 117.614 6.57793 117.812 7.1679ZM126.011 17.001H127.816V5.73508H126.011V4.16178H129.845L136.949 14.5005C137.203 14.922 137.429 15.54 137.429 15.54H137.485C137.485 15.54 137.372 14.8377 137.372 14.3881V5.76318H135.54V4.18988H141.263V5.76318H139.43V18.6024H137.429L130.324 8.26366C130.071 7.84217 129.845 7.22409 129.845 7.22409H129.789C129.789 7.22409 129.901 7.92645 129.873 8.37598V17.001H131.734V18.6024H126.011V17.001ZM158.317 16.9986H160.122V5.76082H158.317V4.18752H168.804V7.53077H167.028V5.8451H162.179V10.4807H167.31V12.1664H162.179V16.9143H167.366V15.2005H169.143V18.6H158.317V16.9986ZM35.5456 29.1068H34.5307V29.7529H37.3498V29.1068H36.3067V22.6169H37.3498V21.9707H34.5307V22.6169H35.5456V29.1068ZM38.3966 29.1348H39.3269V25.0611C39.3269 24.8926 39.2424 24.8083 39.0733 24.8083H38.3121V24.1902H39.3834C39.8626 24.1902 40.0599 24.3868 40.0599 24.8083V25.1173C40.0599 25.3421 40.0036 25.5106 40.0036 25.5106H40.0317C40.2009 25.0892 40.9057 24.0497 42.3153 24.0497C43.6967 24.0497 44.176 24.8363 44.176 26.213V29.1348H45.1063V29.7529H43.4148V26.4097C43.4148 25.5387 43.2738 24.7521 42.2025 24.7521C40.9621 24.7521 40.0882 25.8478 40.0882 27.0558V29.1068H41.0185V29.7248H38.3684L38.3966 29.1348ZM45.5318 24.8049H46.5185L46.5467 27.7268C46.5467 29.581 47.8435 29.8058 48.4919 29.8058C48.6611 29.8058 48.802 29.7777 48.802 29.7777V29.1315C48.802 29.1315 48.6893 29.1596 48.5483 29.1596C48.1254 29.1596 47.2797 28.9629 47.2797 27.6706V24.8049H48.6893V24.1868H47.2797V22.6416H46.5467V24.1868H45.5318V24.8049ZM52.349 24.0497C53.8995 24.0497 54.6889 25.2297 54.6889 26.6063C54.6889 26.7468 54.6607 26.9716 54.6607 26.9716H50.3756C50.4038 28.4044 51.3904 29.2192 52.5463 29.2192C53.5612 29.2192 54.2378 28.5448 54.2378 28.5448L54.5761 29.1068C54.5761 29.1068 53.7867 29.8934 52.5181 29.8934C50.8548 29.8934 49.5862 28.6853 49.5862 26.9716C49.5862 25.1454 50.8548 24.0497 52.349 24.0497ZM53.8995 26.4097C53.8432 25.2297 53.1383 24.6678 52.3207 24.6678C51.3904 24.6678 50.5729 25.2858 50.4038 26.4097H53.8995ZM56.6366 29.1357H55.7627V29.6975H58.2434V29.0795H57.3695V27.3377C57.3695 26.2419 57.9052 24.8372 59.1456 24.8372C59.2865 24.8372 59.4275 24.8653 59.4275 24.8653V24.1348C59.4275 24.1348 59.2865 24.1067 59.1174 24.1067C58.2434 24.1067 57.6232 24.7529 57.3413 25.5958H57.3132C57.3132 25.5958 57.3413 25.3991 57.3413 25.1743V24.8091C57.3413 24.3877 57.144 24.1911 56.6648 24.1911H55.6217V24.8091H56.3829C56.552 24.8091 56.6366 24.8934 56.6366 25.0619V29.1357ZM60.137 29.1348H61.0674V25.0611C61.0674 24.8926 60.9828 24.8083 60.8136 24.8083H60.0524V24.1902H61.1237C61.603 24.1902 61.8003 24.3868 61.8003 24.8083V25.1173C61.8003 25.3421 61.7439 25.5106 61.7439 25.5106H61.7721C61.9412 25.0892 62.646 24.0497 64.0556 24.0497C65.437 24.0497 65.9162 24.8363 65.9162 26.213V29.1348H66.8466V29.7529H65.155V26.4097C65.155 25.5387 65.0141 24.7521 63.9428 24.7521C62.7024 24.7521 61.8284 25.8478 61.8284 27.0558V29.1068H62.7588V29.7248H60.1089L60.137 29.1348ZM71.2664 26.353H70.8999C69.9695 26.353 67.5452 26.4091 67.5452 28.2352C67.5452 29.3872 68.5037 29.8928 69.4058 29.8928C70.8435 29.8928 71.3227 28.6286 71.3227 28.6286H71.351C71.351 28.6286 71.3227 28.7972 71.3227 29.05V29.1624C71.3227 29.5838 71.5201 29.7805 71.9994 29.7805H72.9015V29.1624H72.2813C72.1122 29.1624 72.0276 29.0781 72.0276 28.9096V26.1562C72.0276 24.8077 71.3227 24.0773 69.9695 24.0773C68.701 24.0773 67.9399 24.6954 67.9399 24.6954L68.3063 25.2572C68.3063 25.2572 68.9829 24.7235 69.9132 24.7235C70.7025 24.7235 71.2664 25.0886 71.2664 26.1282V26.353ZM71.2664 27.1957C71.2664 28.151 70.6462 29.2748 69.5185 29.2748C68.7291 29.2748 68.3062 28.7129 68.3346 28.1791C68.3346 26.9328 70.3533 26.9406 70.9017 26.9428L70.9563 26.9429H71.2664V27.1957ZM74.3164 24.8049H73.3298V24.1868H74.3446V22.6416H75.0775V24.1868H76.4872V24.8049H75.0775V27.6706C75.0775 28.9629 75.9233 29.1596 76.3462 29.1596C76.5153 29.1596 76.5999 29.1315 76.5999 29.1315V29.7777C76.5999 29.7777 76.4589 29.8058 76.2898 29.8058C75.6414 29.8058 74.3446 29.581 74.3446 27.7268L74.3164 24.8049ZM78.3118 29.1348H77.3815L77.3533 29.7529H80.0033V29.1348H79.073V24.1902H77.3252V24.8083H78.3118V29.1348ZM79.1294 21.9707H78.2836V22.8979H79.1294V21.9707ZM83.7582 24.0497C85.3934 24.0497 86.718 25.2858 86.718 26.9434C86.718 28.6292 85.3934 29.8934 83.7582 29.8934C82.1511 29.8934 80.8266 28.6292 80.8266 26.9434C80.7977 25.2858 82.123 24.0497 83.7582 24.0497ZM83.7582 29.2192C84.9704 29.2192 85.9289 28.2358 85.9289 26.9434C85.9289 25.6792 84.9423 24.724 83.7582 24.724C82.5742 24.724 81.5876 25.6792 81.5876 26.9434C81.5876 28.2358 82.5742 29.2192 83.7582 29.2192ZM88.6069 29.1348H87.6765L87.6484 29.7248H90.2983V29.1068H89.3679V27.0558C89.3679 25.8478 90.2421 24.7521 91.4823 24.7521C92.554 24.7521 92.6945 25.5387 92.6945 26.4097V29.7529H94.3859V29.1348H93.4555V26.213C93.4555 24.8363 92.9762 24.0497 91.5955 24.0497C90.1859 24.0497 89.453 25.0892 89.3117 25.5106H89.2836C89.2836 25.5106 89.3398 25.3421 89.3398 25.1173V24.8083C89.3398 24.3868 89.1423 24.1902 88.663 24.1902H87.5922V24.8083H88.3532C88.5226 24.8083 88.6069 24.8926 88.6069 25.0611V29.1348ZM98.4149 26.353H98.7809V26.1282C98.7809 25.0886 98.2174 24.7235 97.4275 24.7235C96.4971 24.7235 95.8212 25.2572 95.8212 25.2572L95.4543 24.6954C95.4543 24.6954 96.2153 24.0773 97.4845 24.0773C98.8371 24.0773 99.5419 24.8077 99.5419 26.1562V28.9096C99.5419 29.0781 99.627 29.1624 99.7956 29.1624H100.416V29.7805H99.5138C99.0346 29.7805 98.8371 29.5838 98.8371 29.1624V29.05C98.8371 28.7972 98.8652 28.6286 98.8652 28.6286H98.8371C98.8371 28.6286 98.3579 29.8928 96.9202 29.8928C96.0179 29.8928 95.0594 29.3872 95.0594 28.2352C95.0594 26.4091 97.4845 26.353 98.4149 26.353ZM97.0333 29.2748C98.1604 29.2748 98.7809 28.151 98.7809 27.1957V26.9429H98.4711L98.4157 26.9428C97.8674 26.9406 95.8493 26.9328 95.8493 28.1791C95.8212 28.7129 96.2434 29.2748 97.0333 29.2748ZM100.641 22.5888H101.627V28.3482C101.627 29.4158 102.163 29.7811 102.897 29.7811C103.121 29.7811 103.319 29.7529 103.319 29.7529V29.1068C103.319 29.1068 103.206 29.1348 103.009 29.1348C102.502 29.1348 102.388 28.7416 102.388 28.292V21.9707H100.641V22.5888ZM111.106 21.8273C112.46 21.8273 114.039 22.3892 114.039 23.3444V24.1872H113.306V23.5972C113.306 22.8668 112.093 22.5016 111.106 22.5016C109.133 22.5016 107.865 23.9063 107.865 25.8167C107.865 27.7271 109.161 29.16 111.106 29.16C111.896 29.16 113.503 28.9071 113.503 28.0361V26.8281H111.867V26.182H114.235V28.2047C114.235 29.4128 112.29 29.8623 111.106 29.8623C108.71 29.8623 107.075 28.1204 107.075 25.8448C107.047 23.5691 108.682 21.8273 111.106 21.8273ZM116.342 29.1357H115.468V29.6975H117.949V29.0795H117.075V27.3377C117.075 26.2419 117.611 24.8372 118.851 24.8372C118.992 24.8372 119.133 24.8653 119.133 24.8653V24.1348C119.133 24.1348 118.992 24.1067 118.823 24.1067C117.949 24.1067 117.328 24.7529 117.047 25.5958H117.019C117.019 25.5958 117.047 25.3991 117.047 25.1743V24.8091C117.047 24.3877 116.849 24.1911 116.37 24.1911H115.327V24.8091H116.088C116.258 24.8091 116.342 24.8934 116.342 25.0619V29.1357ZM122.686 24.0497C124.321 24.0497 125.646 25.2858 125.646 26.9434C125.646 28.6292 124.321 29.8934 122.686 29.8934C121.079 29.8934 119.754 28.6292 119.754 26.9434C119.754 25.2858 121.079 24.0497 122.686 24.0497ZM122.686 29.2192C123.898 29.2192 124.857 28.2358 124.857 26.9434C124.857 25.6792 123.87 24.724 122.686 24.724C121.502 24.724 120.515 25.6792 120.515 26.9434C120.515 28.2358 121.502 29.2192 122.686 29.2192ZM126.318 24.8075H127.332L127.304 27.7575C127.304 29.2184 127.841 29.9207 129.137 29.9207C130.49 29.9207 131.195 28.9093 131.336 28.488H131.364V28.8812V29.1622C131.364 29.5836 131.561 29.7803 132.041 29.7803H132.971V29.1622H132.351C132.182 29.1622 132.098 29.078 132.098 28.9093V24.1895H130.349V24.8075H131.336V26.8304C131.336 28.0384 130.519 29.1903 129.278 29.1903C128.207 29.1903 128.066 28.4036 128.066 27.5327V24.1895H126.318V24.8075ZM134.607 31.3538V25.0606C134.607 24.892 134.523 24.8077 134.353 24.8077H133.592V24.1896H134.635C135.114 24.1896 135.312 24.3863 135.312 24.7796V24.8359C135.312 25.0606 135.284 25.2291 135.284 25.2291H135.312C135.312 25.2291 135.763 24.0773 137.257 24.0773C138.751 24.0773 139.681 25.2854 139.681 26.9991C139.681 28.7691 138.638 29.921 137.173 29.921C135.819 29.921 135.34 28.8252 135.34 28.8252C135.34 28.8252 135.368 29.022 135.368 29.3028V31.3818H136.298V32H133.648V31.3818L134.607 31.3538ZM137.116 29.2186C138.103 29.2186 138.92 28.4039 138.92 26.971C138.92 25.6225 138.187 24.7235 137.144 24.7235C136.214 24.7235 135.34 25.3977 135.34 26.971C135.34 28.0948 135.96 29.2186 137.116 29.2186ZM13.0555 11.5166L14.2881 15.9759L18.35 13.6821L16.0451 17.7353L20.523 18.9646L16.0464 20.1936L18.35 24.2446L14.2881 21.9508L13.0555 26.4102L11.8219 21.9478L7.75465 24.2446L10.0577 20.1944L5.57804 18.9646L10.059 17.7345L7.75465 13.6821L11.822 15.9789L13.0555 11.5166Z" fill="black"/>
</svg>
