<svg width="257" height="63" viewBox="0 0 257 63" fill="none" xmlns="http://www.w3.org/2000/svg">
<path fill-rule="evenodd" clip-rule="evenodd" d="M127.271 3.49258C140.04 -0.871965 153.22 -0.804865 166.114 1.81814C168.854 2.42509 171.65 3.03509 174.361 4.13613C176.922 5.17619 179.405 6.65545 181.688 8.98564C184.432 11.691 186.554 16.6106 186.652 22.1403C179.546 22.3903 172.437 22.3355 165.33 22.2807L160.283 22.247C157.659 17.0224 153.462 15.3876 149.598 15.0887C147.258 14.9545 144.876 15.0186 142.526 15.4822C139.685 16.0464 136.895 17.1962 134.298 19.3007C130.291 22.5368 126.854 28.53 125.795 36.0117C125.706 36.5912 125.67 37.1737 125.679 37.7503C125.691 38.3847 125.757 39.0099 125.87 39.6137C126.26 41.6877 127.2 43.4965 128.329 44.4877C129.796 45.7657 131.358 46.5555 132.959 47.0589C135.061 47.7207 137.235 47.8885 139.357 48.0226C144.252 48.3582 149.35 46.7995 153.503 42.1758C153.62 42.0629 153.73 41.9227 153.843 41.7823C153.963 41.6298 154.085 41.4772 154.213 41.3553C154.389 41.1876 154.58 41.0839 154.8 41.1326C163.687 41.0808 172.578 41.1021 181.465 41.1693C178.406 47.0039 174.334 51.0116 170.097 53.8451C164.785 57.4013 159.138 59.268 153.5 60.552C147.243 61.8208 140.943 62.6016 134.641 62.4461C126.114 62.3668 117.492 61.4243 109.267 57.3586C105.475 55.3426 101.65 52.2561 99.1754 46.7599C97.1154 42.4014 96.8262 36.0696 98.1768 31.0432C99.9268 24.4309 103.355 19.6515 106.951 16.0494C113.232 9.89759 120.194 5.96919 127.271 3.49258ZM31.6791 2.10178C35.5012 2.15668 39.3262 2.20853 43.1511 2.18413C41.4518 8.72029 39.7256 15.2442 38.0204 21.7804C41.4637 21.7896 44.9071 21.7835 48.3504 21.7773L55.8007 21.7743C58.8684 21.7773 61.9332 21.7896 64.998 21.82C65.8686 18.5962 66.7093 15.348 67.5499 12.0966C68.4086 8.78129 69.2672 5.46594 70.1586 2.17499C79.6569 2.15668 89.1495 2.11703 98.6447 2.17804C93.4931 21.5791 88.3594 40.9893 83.2315 60.4056C79.9074 60.5276 76.5833 60.5673 73.2592 60.5765C71.1425 60.5826 69.0228 60.5765 66.9061 60.5673L61.5575 60.5551L59.3664 60.5612L58.6598 60.5765L58.0248 60.5826C56.9664 60.5855 55.9081 60.5399 54.8586 60.2897C56.1556 55.5867 57.4076 50.8469 58.6508 46.1011L60.9673 37.2714L33.9091 37.2653C31.9534 44.9696 29.9322 52.6281 28.039 60.369C19.4678 60.6832 10.8966 60.5978 2.32541 60.5125L0 60.4909C2.76961 49.8161 5.59885 39.1837 8.42809 28.5514C10.7744 19.7399 13.1177 10.9315 15.4282 2.09875C20.8452 1.94928 26.2622 2.02554 31.6791 2.10178ZM228.623 1.99809H199.976C196.165 16.4673 192.334 30.9244 188.545 45.4119C187.227 50.4444 185.916 55.4829 184.61 60.5246C207.3 60.5704 229.995 60.5612 252.685 60.5307C253.94 55.8062 255.187 51.0788 256.438 46.3511C243.279 46.3574 230.117 46.3024 216.957 46.2902C220.863 31.5374 224.756 16.7784 228.623 1.99809Z" fill="#0F6DB3"/>
</svg>
