<svg width="224" height="82" viewBox="0 0 224 82" fill="none" xmlns="http://www.w3.org/2000/svg">
<path opacity="0.4" d="M27.6956 68.267C26.061 64.3511 25.0474 60.1714 24.716 55.9371C24.6325 54.8784 24.6164 53.8263 24.5937 52.7646C24.5809 52.0889 24.4233 51.2104 24.8995 50.6506C25.4045 50.0489 26.3988 50.0393 26.875 50.6827C27.3802 51.3713 27.3578 52.6423 27.5475 53.4628C29.1821 60.5673 33.5581 66.9413 39.4108 71.2432C45.7141 75.8798 53.6712 78.0998 61.4642 77.511C62.2042 77.4564 63.2853 77.1185 63.9578 77.5529C64.4533 77.8713 64.6914 78.5697 64.4212 79.1101C64.0865 79.7794 63.0826 79.8727 62.4424 80.0434C61.4257 80.3136 60.4057 80.5774 59.3761 80.7897C55.1705 81.6585 50.8011 81.9868 46.5217 81.562C38.3715 80.7576 30.9035 75.9506 27.6956 68.267Z" fill="#6DB0E1"/>
<g opacity="0.5">
<path opacity="0.5" d="M17.7915 53.8336C16.9517 31.4297 35.1408 12.5584 58.4137 11.6864C62.0076 11.5513 65.5148 11.8537 68.8772 12.5455C70.2254 12.8222 70.8592 10.9367 69.6108 10.3511C63.5939 7.52607 56.7855 6.05242 49.6199 6.31948C26.4179 7.18824 8.28996 25.9983 9.12332 48.3348C9.53838 59.4419 14.5675 69.3263 22.3669 76.3536C23.6476 77.5086 25.5105 75.8742 24.5452 74.4455C20.5265 68.4963 18.0778 61.453 17.7915 53.8336Z" fill="#6DB0E1"/>
</g>
<path d="M9.12483 48.3307C8.28825 25.9942 26.4194 7.18406 49.6214 6.3153C49.6827 6.31209 49.7437 6.31209 49.8049 6.30888C52.7006 6.21234 53.0674 2.06487 50.2327 1.46962C46.9766 0.78427 43.5789 0.481816 40.0974 0.61052C17.5549 1.45353 -0.0485261 20.106 0.781612 42.2719C1.33182 56.9345 10.2671 69.8692 22.4649 76.4235C14.4628 69.2965 9.53346 59.264 9.12483 48.3307Z" fill="#285EA4"/>
<path d="M218.285 42.216H209.176V42.0423C209.176 38.6253 211.11 36.7237 213.775 36.7237C216.438 36.7237 218.285 38.6703 218.285 42.0423V42.216ZM224 45.1988V42.7759C224 36.3342 220.39 31.791 213.775 31.791C207.201 31.791 203.462 36.0287 203.462 42.7759V45.9743C203.462 54.4944 209.563 56.8271 213.858 56.8271C217.725 56.8271 219.399 56.6117 222.191 56.0936C222.964 55.9649 223.092 55.6624 223.092 54.9706V52.1166C223.092 51.6854 222.749 51.4666 222.319 51.4666H222.191C220.387 51.6405 217.422 51.8978 214.286 51.8978C210.161 51.8978 209.132 48.9152 209.132 46.4053V46.2766H223.138C223.743 46.2798 224 45.8906 224 45.1988Z" fill="black"/>
<path d="M131.382 55.8842C132.45 56.1512 133.576 56.3378 134.687 56.4922C136.81 56.7851 139.008 56.9812 141.144 56.7303C142.872 56.5308 144.574 55.9838 145.984 54.9413C147.341 53.9374 148.303 52.5024 148.876 50.9226C149.516 49.1593 149.655 47.2641 149.671 45.4012C149.684 43.625 149.748 42.1224 149.488 40.2724C149.047 37.1577 147.531 34.2683 144.613 32.8557C141.711 31.4529 138.31 31.6782 135.208 32.0996C135.208 28.2417 135.208 25.2719 135.208 24.7475V32.0996C135.208 28.1838 135.208 24.9501 135.208 24.5191C135.208 23.898 134.741 23.7886 134.342 23.7886C133.206 23.7886 131.514 23.7886 130.369 23.7886C129.992 23.7886 129.506 24.0911 129.506 24.7475C129.506 24.9629 129.506 54.5392 129.506 54.5392C129.442 55.5365 130.343 55.6266 131.382 55.8842ZM135.198 51.8621C135.198 50.8389 135.208 42.0999 135.208 36.8939C135.423 36.8166 138.303 36.5335 139.651 36.5882C141.074 36.6462 142.055 37.1191 142.698 37.8946C143.58 38.9627 143.879 40.4268 143.937 41.8199C144.001 43.4094 143.947 45.0344 143.95 46.6207C143.953 47.8336 143.75 49.0982 143.162 50.1825C142.496 51.402 141.263 52.0809 139.893 52.1453C138.12 52.2256 135.993 52.0036 135.198 51.8621Z" fill="black"/>
<path d="M112.134 54.5465C112.134 54.5465 112.134 24.9704 112.134 24.7548C112.134 24.0984 111.648 23.7959 111.272 23.7959C110.126 23.7959 108.434 23.7959 107.298 23.7959C106.899 23.7959 106.433 23.9053 106.433 24.5264C106.433 24.9574 106.433 28.1912 106.433 32.107V24.7548C106.433 25.2792 106.433 28.249 106.433 32.107C103.331 31.6887 99.9267 31.4603 97.0276 32.8631C94.1094 34.2757 92.5938 37.165 92.1529 40.2797C91.9149 41.9689 91.9568 43.7064 91.9696 45.4085C91.9825 47.2714 92.1208 49.1634 92.7644 50.9299C93.3371 52.5098 94.2991 53.9415 95.6569 54.9486C97.0663 55.9943 98.7684 56.5381 100.496 56.7376C102.633 56.9853 104.833 56.7924 106.954 56.4995C108.064 56.3452 109.19 56.1585 110.258 55.8915C111.298 55.6307 112.199 55.5406 112.134 54.5465ZM101.751 52.1462C100.38 52.0818 99.148 51.4061 98.482 50.1834C97.8932 49.1023 97.6904 47.8345 97.6936 46.6216C97.6969 45.0353 97.639 43.4103 97.7067 41.8208C97.7645 40.4277 98.0638 38.9636 98.9453 37.8955C99.5856 37.12 100.57 36.647 101.992 36.5891C103.341 36.5344 106.22 36.8175 106.436 36.8948C106.436 42.1008 106.436 46.9819 106.436 47.5257C106.436 47.5257 106.436 46.8564 106.436 47.5257C106.436 47.5418 106.446 50.8398 106.446 51.863C105.648 52.0077 103.524 52.2297 101.751 52.1462Z" fill="black"/>
<path d="M117.937 55.75C117.937 54.3568 117.937 34.025 117.937 32.8988C117.937 32.2809 118.41 31.9463 118.815 31.9463C119.98 31.9463 121.685 31.9463 122.85 31.9463C123.233 31.9463 123.725 32.2456 123.725 32.8988C123.725 34.025 123.725 54.3568 123.725 55.75V32.8956C123.725 34.2888 123.725 54.6208 123.725 55.7468C123.725 56.3647 123.252 56.6993 122.847 56.6993C121.682 56.6993 119.977 56.6993 118.812 56.6993C118.432 56.6993 117.937 56.4 117.937 55.75C117.937 54.624 117.937 34.2888 117.937 32.8956V55.75Z" fill="black"/>
<path d="M120.83 28.6486C122.847 28.6486 124.482 27.0136 124.482 24.9967C124.482 22.9797 122.847 21.3447 120.83 21.3447C118.813 21.3447 117.178 22.9797 117.178 24.9967C117.178 27.0136 118.813 28.6486 120.83 28.6486Z" fill="black"/>
<path d="M67.9489 52.1625C68.4831 53.7134 69.3035 55.0711 70.7836 55.8498C72.3088 56.6509 74.0398 56.783 75.7291 56.8216C77.8784 56.8697 80.0149 56.7926 82.1482 56.5062C83.2035 56.3647 86.257 55.7468 86.7204 55.5828C86.9907 55.4862 87.2738 55.3543 87.4057 55.0841C87.5667 54.7527 87.499 53.0859 87.499 52.674L87.4958 32.902C87.4958 32.2488 87.0036 31.9495 86.6238 31.9495C85.4655 31.9495 83.7698 31.9495 82.6115 31.9495C82.2093 31.9495 81.7395 32.2874 81.7395 32.902C81.7395 34.0282 81.7459 51.6444 81.7459 51.6444C81.7459 51.8214 81.775 51.8407 81.6108 51.8568C80.4397 51.9919 75.8868 52.7384 74.4098 51.0428C73.9788 50.5473 73.6313 49.9907 73.4221 49.3728C73.1614 48.6037 73.1132 47.8509 73.1132 47.0401C73.1132 47.0401 73.1389 34.025 73.1389 32.8988C73.1389 32.2456 72.6434 31.9463 72.2606 31.9463C71.0957 31.9463 69.384 31.9463 68.2193 31.9463C67.8138 31.9463 67.3408 32.2841 67.3408 32.8988C67.3408 34.025 67.3697 48.0021 67.4534 49.4308C67.5211 50.7178 67.9489 52.1625 67.9489 52.1625Z" fill="black"/>
<path d="M198.348 36.5535C197.814 35.009 196.994 33.6544 195.514 32.8789C193.989 32.081 192.257 31.9523 190.568 31.9137C188.419 31.8656 186.282 31.9427 184.149 32.2291C183.094 32.3706 180.04 32.9851 179.577 33.1493C179.307 33.2459 179.024 33.3778 178.892 33.648C178.732 33.9794 178.798 35.6365 178.798 36.0483L178.801 55.7496C178.801 56.3996 179.295 56.6989 179.673 56.6989C180.832 56.6989 182.528 56.6989 183.686 56.6989C184.089 56.6989 184.559 56.3642 184.559 55.7496C184.559 54.6268 184.552 37.0748 184.552 37.0748C184.552 36.8978 184.523 36.8817 184.687 36.8625C185.857 36.7272 190.411 35.984 191.887 37.6733C192.318 38.1655 192.667 38.7222 192.875 39.34C193.137 40.1057 193.184 40.8587 193.184 41.663C193.184 41.663 193.159 54.63 193.159 55.753C193.159 56.4028 193.654 56.7021 194.036 56.7021C195.201 56.7021 196.913 56.7021 198.078 56.7021C198.484 56.7021 198.957 56.3675 198.957 55.753C198.957 54.63 198.928 40.7043 198.844 39.282C198.776 37.9918 198.348 36.5535 198.348 36.5535Z" fill="black"/>
<path d="M60.178 34.3332C58.1638 32.4026 55.2391 31.8106 52.3689 31.7912C50.9372 31.7815 46.8926 32.1774 44.9846 32.5731C44.4761 32.6793 44.1254 32.9593 44.1158 33.4901C44.1126 33.7282 44.1061 34.597 44.1093 35.3724C44.1126 36.0096 44.119 36.5855 44.2091 36.6981C44.4311 36.978 44.7979 37.1422 45.1165 37.1034C46.2266 36.978 47.6487 36.9039 48.7684 36.8493C50.773 36.7527 52.1533 36.7399 52.8902 36.7624C53.6785 36.7849 54.7146 36.8654 55.4224 37.2484C56.0467 37.5894 56.8382 38.4163 56.9637 39.1305C57.0892 39.8095 57.0827 42.168 57.0344 42.2033C56.9701 42.2485 53.6561 42.1648 52.1051 42.2678C48.7491 42.4866 44.5566 43.2362 43.2116 46.4763C42.5682 48.0241 42.5295 49.8548 42.8095 51.4764C43.1151 53.2494 44.1029 54.6201 45.7697 55.5788C47.7743 56.7373 50.2099 56.8724 52.4847 56.7855C58.4374 56.557 61.9895 55.7976 62.4368 55.4985C62.7457 55.2926 62.8228 54.9836 62.8228 54.6458L62.8068 48.2943V41.0804L62.8228 39.8642C62.8003 37.377 61.2012 35.3112 60.178 34.3332ZM57.0376 51.8143C57.0055 51.8787 54.4217 52.1554 53.1444 52.1586C52.34 52.1586 49.8881 52.0847 49.1642 51.1579C48.7202 50.5916 48.7234 49.3207 48.8425 48.5131C48.9486 47.7924 49.3766 47.1874 50.1359 46.8174C51.0336 46.3798 52.9545 46.2832 54.1836 46.2832C54.8754 46.2832 56.9573 46.2672 57.0312 46.2864C57.044 46.2864 57.044 51.7982 57.0376 51.8143Z" fill="black"/>
<path d="M168.627 42.216H159.518V42.0423C159.518 38.6253 161.452 36.7237 164.116 36.7237C166.78 36.7237 168.627 38.6703 168.627 42.0423V42.216ZM174.342 45.1988V42.7759C174.342 36.3342 170.732 31.791 164.116 31.791C157.542 31.791 153.803 36.0287 153.803 42.7759V45.9743C153.803 54.4944 159.904 56.8271 164.199 56.8271C168.067 56.8271 169.74 56.6117 172.533 56.0936C173.305 55.9649 173.434 55.6624 173.434 54.9706V52.1166C173.434 51.6854 173.089 51.4666 172.661 51.4666H172.536C170.732 51.6405 167.768 51.8978 164.63 51.8978C160.505 51.8978 159.476 48.9152 159.476 46.4053V46.2766H173.481C174.083 46.2798 174.342 45.8906 174.342 45.1988Z" fill="black"/>
</svg>
