<svg width="172" height="73" viewBox="0 0 172 73" fill="none" xmlns="http://www.w3.org/2000/svg">
<path fill-rule="evenodd" clip-rule="evenodd" d="M37.71 28.8834C37.2237 27.6101 36.8346 26.2519 36.5764 24.8901C36.2351 23.0402 36.2634 19.5103 36.6348 17.618C38.299 9.27764 44.7593 2.70229 53.3137 0.626055C55.3634 0.127333 56.5288 0 58.934 0C60.508 0.00707406 61.9476 0.123796 63.327 0.371388C65.2794 0.725092 67.1134 1.337 69.0393 2.2637C75.3582 5.30909 79.7123 10.8304 81.0935 17.5331C81.3022 18.5482 81.4118 19.8003 81.426 21.0736C81.4454 22.9094 81.2686 24.7981 80.9078 26.0998C80.3967 27.9496 79.7547 29.6156 79.0014 31.0516L78.133 32.7175L72.7249 32.7458L67.3309 32.7741L67.9994 32.2047C70.2207 30.2982 71.899 27.2528 72.4543 24.1084C73.4518 18.4315 70.5196 12.5388 65.3113 9.77636C61.0987 7.54095 56.0319 7.61523 51.9607 9.99212C48.788 11.8278 46.496 14.8308 45.5428 18.3713C45.2298 19.5386 45.159 20.0939 45.159 21.6891C45.1449 23.7229 45.2864 24.6496 45.8558 26.358C45.992 26.7576 46.1459 27.1467 46.3174 27.5287C46.4341 27.7869 46.5597 28.0416 46.6941 28.2927C46.8179 28.5262 46.9488 28.7561 47.0867 28.9824C47.2194 29.1982 47.3591 29.4104 47.5041 29.6191C48.0152 30.3583 48.6094 31.0587 49.285 31.7236L50.3815 32.7883H45.0158H39.666L39.0824 31.7944C38.5695 30.9101 38.1062 29.9268 37.71 28.8834ZM2.223 1.337V17.0626V32.7883H6.13673H10.0505V26.8814V20.9781H16.525H23.0013V26.8814V32.7883L26.8867 32.76L30.758 32.7175L30.8005 17.0202L30.8287 1.337H26.915H23.0013V7.66829V14.0031H16.525H10.0505V7.66829V1.337H6.13673H2.223ZM14.6044 72.1272C8.27132 71.2712 3.23282 67.2567 1.31221 61.509C0.657862 59.5742 0.472168 58.3504 0.472168 55.9877C0.472168 52.1146 1.36881 49.2001 3.47511 46.2538C4.38589 45.0017 6.08013 43.3357 7.24558 42.5682C10.8604 40.163 15.3578 39.1797 19.7702 39.8341C21.705 40.1347 22.9288 40.5026 24.6372 41.3267C25.1836 41.5955 25.7036 41.8855 26.197 42.2003C26.8195 42.6 27.4014 43.0386 27.9425 43.5196L28.107 43.6682C28.3033 43.8451 28.4943 44.0325 28.68 44.2235C29.7553 45.3306 30.659 46.6358 31.4106 48.1602C31.9093 49.186 32.5354 50.9616 32.5354 51.3754C32.5354 51.5452 31.8527 51.5735 28.4519 51.5735H24.3524L23.997 50.8342C23.5407 49.8828 21.9897 48.3017 21.0789 47.8454C19.5845 47.092 18.916 46.9506 16.953 46.9647H16.5533L16.1784 46.9718C15.9202 46.9789 15.6991 46.9895 15.5028 47.0036C14.9899 47.0425 14.6468 47.1203 14.2489 47.2618C11.246 48.2876 9.25285 50.4805 8.54191 53.5259C8.22888 54.8629 8.34206 57.8093 8.75413 59.118C9.53758 61.5939 11.6156 63.7585 13.9783 64.5544C18.0052 65.9197 22.3894 64.4129 24.0111 61.1093L24.3524 60.3984H28.4519C31.3257 60.3984 32.5354 60.4408 32.5354 60.554C32.5354 60.9678 31.6104 63.4296 31.0834 64.3705C28.7083 68.767 24.7079 71.3985 19.2998 72.1272C17.3933 72.396 16.6258 72.396 14.6044 72.1272ZM37.1176 55.9594L37.16 40.262L45.2015 40.2762C52.8291 40.2903 53.3137 40.3045 54.6082 40.591C57.2981 41.1711 59.148 42.0836 60.7414 43.5762C62.9202 45.6277 63.9867 48.1602 63.9867 51.2198C63.9867 52.9847 63.6736 54.3925 62.876 56.1292C62.2217 57.5546 60.7856 59.217 59.4044 60.1578C59.0348 60.3984 58.7218 60.6566 58.7218 60.7273C58.7218 60.7839 59.4469 61.9087 60.3294 63.2174C64.5703 69.4638 65.8365 71.3702 65.8365 71.5011C65.8365 71.586 64.1582 71.6426 61.3533 71.6426H56.8861L56.7004 71.2995C56.6597 71.2217 56.4015 70.8185 56.0036 70.2066L53.7399 66.7473L50.9651 62.5347H47.948H44.9167V67.0869V71.6426H41.003H37.0893L37.1176 55.9594ZM53.3561 55.1353C54.4667 54.6931 55.4766 53.7664 55.8745 52.8433C56.0124 52.5143 56.1008 52.1535 56.1398 51.7857C56.1734 51.478 56.1734 51.1667 56.1415 50.8625C56.0832 50.3143 55.9222 49.7908 55.6623 49.3557C55.3563 48.8747 54.9283 48.4503 54.4013 48.1001C53.8955 47.7676 53.2977 47.5023 52.6292 47.322C52.4418 47.2724 52.2702 47.23 52.0952 47.1946C51.7697 47.131 51.4337 47.0885 50.9562 47.0602C50.3532 47.0284 49.5273 47.0213 48.2186 47.0213H44.9167V51.3047V55.5739L48.7314 55.5314C52.3463 55.4748 52.5727 55.4607 53.3561 55.1353ZM70.035 40.262L69.9925 55.9594L69.9642 71.6426H81.9194H93.8728V68.3001V64.9541H85.8331H77.7917V62.1775V59.4045L84.8074 59.3762L91.809 59.3337L91.8532 56.1009L91.8815 52.8574H84.8357H77.7917V49.9394V47.0213H85.8331H93.8728V43.6081V40.1913L81.9619 40.2196L70.035 40.262ZM99.1677 55.9594L99.2102 40.262H106.611C113.058 40.2762 114.182 40.3045 115.364 40.5167C118.238 41.0579 120.97 42.2109 123.076 43.8203C123.568 44.1917 124.03 44.5878 124.459 45.0052C124.831 45.366 125.179 45.748 125.506 46.1477C125.708 46.3917 125.901 46.6428 126.085 46.901C127.239 48.5316 128.053 50.4345 128.541 52.6417C128.912 54.2793 128.884 57.597 128.484 59.3337C127.218 64.9541 123.248 69.1667 117.64 70.8468C115.192 71.5718 114.267 71.6426 106.397 71.6426H99.1395L99.1677 55.9594ZM114.154 64.4553C116.83 63.7727 118.936 62.1067 120.059 59.7582C121.255 57.2822 121.255 54.6082 120.103 52.1465C119.391 50.6503 117.712 48.9702 116.218 48.2593C115.037 47.6933 114.366 47.4493 113.044 47.3255C112.341 47.2618 111.455 47.23 110.212 47.2052L106.967 47.1203V55.9028V64.6676H110.14C112.502 64.6676 113.528 64.611 114.154 64.4553ZM133.295 40.1913V55.9169V71.6426H137.138H140.979V55.9169V40.1913H137.138H133.295ZM154.358 59.4045V47.1663H149.804H145.25V43.6788V40.1913H158.201H171.152V43.6788V47.1663H166.598H162.044V59.4045V71.6426H158.201H154.358V59.4045ZM87.0428 1.337V17.0626V32.7883L90.9282 32.76L94.7995 32.7175L94.7429 24.8618C94.7129 20.536 94.7429 16.9919 94.7854 16.9919C94.8101 16.9919 94.9109 17.1086 95.0453 17.2961C95.1497 17.4376 95.2735 17.618 95.3973 17.816L96.8315 20.0373L98.4992 22.6122C99.9229 24.8052 101.26 26.8673 101.474 27.2104L101.844 27.8081H103.978H106.127L107.494 25.7142C108.233 24.547 109.186 23.0968 109.6 22.4708C109.871 22.0463 110.401 21.2363 110.96 20.391L111.749 19.199L113.157 17.0626L113.201 24.9325L113.229 32.7883H117.143H121.057V17.0626V1.337H118.153H115.265L109.671 9.73391C107.895 12.3973 106.29 14.7777 105.241 16.3057C104.473 17.4199 104.003 18.0778 103.978 18.0601C103.936 18.0318 101.389 14.2578 98.3419 9.67732L92.8064 1.337H89.9326H87.0428ZM127.602 17.0626V1.337H139.557H151.511V4.68303V8.02553H143.469H135.429V10.9436V13.8616H142.403H149.376V17.2041V20.5502H142.403H135.429V23.3232V26.0998H143.469H151.511V29.4458V32.7883H139.557H127.602V17.0626ZM53.4127 28.0204C54.2527 28.8869 55.1069 29.414 56.359 29.8844C57.0558 30.1426 57.5263 30.2133 58.7218 30.2133C61.1128 30.2275 62.563 29.6439 64.2148 28.0204C65.1114 27.1396 66.1213 25.601 66.1213 25.1023C66.1213 25.0033 63.7302 24.9608 58.8491 24.9608H51.577L51.676 25.3605C51.7821 25.838 52.2579 26.6339 52.8167 27.3377C53.0095 27.5818 53.2129 27.8152 53.4127 28.0204Z" fill="#C01930"/>
</svg>
