<svg width="207" height="82" viewBox="0 0 207 82" fill="none" xmlns="http://www.w3.org/2000/svg">
<path fill-rule="evenodd" clip-rule="evenodd" d="M15.4031 78.7752C17.0481 79.2975 18.5635 79.4682 19.9966 79.2975C21.4696 79.1218 22.8568 78.589 24.2091 77.7151C28.879 74.5397 31.2804 69.9059 32.7483 64.7392C33.1352 63.2965 33.4526 61.8433 33.7106 60.3744C33.9268 59.1436 34.1015 57.9075 34.2416 56.6613C34.6264 53.2478 34.7494 49.7932 34.7494 46.3384V5.55958C34.7494 5.2958 34.7494 4.7683 34.6161 4.3701C33.5489 4.10634 32.481 3.83739 31.147 3.44435L37.6851 0L37.7677 0.408563L37.8017 0.69818L37.8181 1.18949L37.835 13.4361L37.8513 25.631C37.8519 33.8489 37.8194 42.0613 37.6851 50.3104C37.5516 56.7954 36.7509 63.4154 34.216 69.5075C32.0812 74.9377 28.6121 79.1736 23.1415 81.1593C19.4058 82.6126 15.9367 82.3491 13.0017 79.0391C12.6369 78.6099 12.2304 78.2218 11.7991 77.8599C11.1522 77.3169 10.4492 76.8308 9.7456 76.3446L8.52019 75.4758C8.22766 75.2587 7.941 75.0362 7.66477 74.8036C7.20157 74.3742 6.71425 73.9552 6.22435 73.5365C4.73767 72.2588 3.23079 70.9662 2.32783 69.3731C1.12649 67.3872 0.592922 65.0083 0.45937 62.7535C0.343404 60.1105 0.278256 57.4628 0.230046 54.8097L0.176625 51.4997L0.147308 49.4827L0.0593574 44.3523C-0.0741967 36.807 0.0593574 29.127 0.0593574 21.5817C0.0593574 20.5212 0.326467 19.8593 1.3936 19.3319L1.48937 19.2853C4.45036 17.6975 7.41133 16.1098 10.431 14.5221C12.4134 13.4774 14.4213 12.4328 16.4702 11.3881C16.4702 11.8225 16.5106 12.1793 16.5471 12.5C16.5771 12.7637 16.6038 13.0016 16.6038 13.2396L16.6207 21.9848V22.2177C16.6344 27.0222 16.6481 31.8369 16.624 36.6415C16.6038 40.541 16.5595 44.4403 16.4702 48.3243C16.3992 50.9516 16.1738 53.5426 15.8565 56.1389C15.5823 58.378 15.2402 60.6176 14.8695 62.8879C14.336 65.7996 12.8682 68.7112 10.1997 70.5679C9.39904 71.0953 8.59836 71.4936 7.53123 72.1555C9.79904 72.6829 11.8004 73.0814 13.6689 71.3592C16.7373 68.582 18.4716 65.1376 19.0058 61.3002C19.6729 57.0645 20.0729 52.8237 20.2064 48.4588L20.2742 45.0972L20.3264 41.3891L20.3655 36.9466C20.4136 29.4477 20.385 21.9695 20.4729 14.429C20.4729 13.7154 20.4273 13.1206 20.241 12.6603C20.1798 12.5103 20.1029 12.3759 20.0077 12.2569C19.6945 11.8639 19.1785 11.6518 18.3387 11.6518C18.0716 11.6518 17.6716 11.5174 16.8709 11.3881C19.1387 10.0641 21.2736 9.13323 23.4086 7.94373C23.542 8.60569 23.542 9.00394 23.542 9.53144L23.572 21.7315V21.8556C23.6013 29.9803 23.6306 38.1207 23.542 46.204C23.4086 51.3704 23.1415 56.5319 22.3413 61.5637C21.4071 68.0492 18.2052 73.0814 11.4004 75.7291C12.3353 75.905 13.1425 76.1068 13.9001 76.2155C14.8721 76.3601 15.7627 76.3653 16.7373 75.9929C21.8073 73.7433 24.4756 69.5075 25.677 64.4757C25.8718 63.6221 26.0549 62.7535 26.223 61.8792L26.4055 60.8865L26.6054 59.6969L26.8127 58.285C27.1051 56.1128 27.2777 53.9252 27.2777 51.7686C27.4379 43.5871 27.4543 35.4054 27.4706 27.2238L27.4952 18.1475L27.5448 10.8554C27.5448 9.00394 27.1442 8.07819 25.2764 8.07819C25.0099 8.07819 24.7428 7.94373 24.0757 7.80925C26.2106 6.35601 28.2119 5.43028 30.6132 4.23562L30.6264 4.68557L30.6902 5.43028C30.7201 5.71989 30.7468 5.98365 30.7468 6.22155L30.777 20.1127C30.8061 29.3234 30.836 38.4928 30.7468 47.6623C30.6889 50.5947 30.6055 53.5531 30.3229 56.4905C29.954 60.3227 29.2458 64.1188 27.8113 67.7853C25.9435 72.4194 23.1415 76.2619 18.4716 78.2478C17.4045 78.2478 16.4702 78.5116 15.4031 78.7752ZM72.1083 70.5679V71.4936H62.368V70.4333L62.7549 70.3403L62.981 70.304C63.1771 70.2731 63.3732 70.2367 63.5694 70.1695C64.6364 69.9059 65.17 69.3783 65.17 68.3181C65.2594 67.5218 65.2293 66.7305 65.2 65.9392L65.17 64.7446V57.5921H56.2311V58.5176V67.3924C56.2311 69.5075 56.6309 70.0403 58.766 70.1695L58.885 70.1749C58.9789 70.1799 59.0721 70.211 59.1658 70.304V71.3642H49.4263V70.304L49.5121 70.2833L49.5873 70.2524L49.6928 70.1695C51.8275 69.9059 52.2283 69.5075 52.2283 67.3924V47.9262C52.2283 45.2782 51.9612 45.1488 49.4263 44.6162C49.4263 44.5748 49.4132 44.5387 49.3957 44.4973L49.3598 44.4196C49.3258 44.3523 49.2926 44.2904 49.2926 44.2232V43.6905H59.0325V44.6162C58.99 44.6162 58.9613 44.6319 58.9371 44.6471L58.9008 44.6783C58.8668 44.7144 58.8336 44.7508 58.766 44.7508C57.1816 44.9161 56.4831 45.1334 56.1821 45.8885C56.0018 46.3384 55.9638 46.9849 55.9638 47.9262V56.0043H64.9035V52.0325V47.3986C64.9035 45.4127 64.3693 44.8851 62.368 44.6162C62.235 44.6162 62.1015 44.6162 61.9678 44.4869V43.4268H71.7077V44.3523C71.5747 44.3523 71.5747 44.4869 71.4412 44.4869C69.1728 44.7508 68.7726 45.1488 68.7726 47.3986V66.9942C69.3063 69.7714 69.4397 70.0403 72.1083 70.5679ZM93.456 57.8558C94.1231 56.5319 93.7225 55.3422 92.1218 54.4167C93.189 53.2219 94.5232 52.8289 96.5247 52.56C98.2588 52.6945 99.0596 53.6202 99.1931 55.208C99.3266 56.4026 99.1931 57.4628 99.3266 58.5176C99.3266 59.1796 99.0596 59.4487 98.3925 59.7124C96.391 60.5037 94.3897 61.3002 92.6554 62.2259C91.4549 62.8879 90.5205 63.9479 89.8533 64.8737C89.1386 65.8667 88.9602 67.1287 89.2143 68.2872C89.3199 68.7682 89.4996 69.2283 89.7466 69.6473C90.0163 70.1024 90.3667 70.5109 90.7876 70.8316C91.2795 71.2453 91.9864 71.5504 92.7833 71.7107C93.3272 71.8245 93.9128 71.871 94.501 71.84C96.0875 71.7521 97.6893 71.0953 98.5258 69.642L98.6654 69.4766L98.8596 69.1767L99.0556 68.8714L99.1931 68.7162C100.661 72.2901 102.929 72.8175 105.464 70.304C105.597 70.7023 105.597 70.9662 105.731 71.2299H114.27V70.7023C114.137 70.5679 114.137 70.4333 114.137 70.304C111.735 69.9059 111.601 69.642 111.601 67.1233V44.3523V43.4268H106.398C105.331 43.4268 105.197 43.5614 105.464 44.6162C105.731 44.6162 105.998 44.7508 106.264 44.7508C107.466 45.0145 107.999 45.6764 107.999 46.871V68.1837C107.999 68.4061 107.976 68.6077 107.932 68.7939C107.879 69.0215 107.795 69.2181 107.685 69.3938C107.504 69.6784 107.252 69.8903 106.956 70.0299C106.529 70.2317 106.008 70.2781 105.464 70.1695L105.864 66.0685H104.663C104.663 66.146 104.651 66.2029 104.634 66.2495L104.596 66.332L104.561 66.415C104.543 66.4614 104.53 66.5184 104.53 66.5959L104.432 67.4236C104.371 68.0129 104.314 68.5613 104.13 69.1094C104.13 69.2181 104.091 69.3163 104.028 69.4042C103.86 69.6318 103.523 69.7714 103.329 69.7714C103.062 69.7714 102.662 69.3783 102.529 69.1094C102.395 68.7162 102.395 68.1837 102.395 67.7853V56.8008C102.395 56.3301 102.355 55.875 102.265 55.4508C102.167 54.9907 102.009 54.5563 101.777 54.1631C101.441 53.5891 100.949 53.0926 100.26 52.6945C97.5916 51.236 94.7903 51.236 92.1218 52.8289C90.8066 53.4804 90.0865 54.6545 89.9152 55.8957C89.8814 56.1441 89.869 56.3923 89.878 56.6406C89.8878 56.9197 89.9244 57.1939 89.987 57.4628C90.0775 58.1764 90.3504 58.6522 90.8066 58.8849L90.9623 58.952L91.1557 59.004C91.2885 59.035 91.4326 59.0504 91.5877 59.0504C92.5219 59.1796 93.189 58.7867 93.456 57.8558ZM93.589 64.61C94.7903 62.8879 96.7918 62.0965 98.926 61.3002C98.926 62.8724 98.926 64.3773 98.7442 65.8667L98.6601 66.4666C98.5912 66.9062 98.5031 67.3459 98.3925 67.7853C98.141 68.5352 97.8367 69.2335 97.3475 69.7816C97.0583 70.1022 96.7037 70.3713 96.2574 70.5679C94.7903 71.3642 93.3227 70.8316 92.9219 69.244C92.3883 67.5218 92.5219 66.0685 93.589 64.61ZM148.693 37.3398C146.692 37.469 144.958 37.469 142.957 37.469V34.8211L142.556 35.2192C140.688 39.0566 136.018 38.7931 133.483 35.7468C132.016 34.0298 131.348 32.0437 131.215 29.9235C130.948 26.8774 131.215 23.9658 132.816 21.3178C134.017 19.3319 135.618 17.8734 138.02 17.7441C138.818 17.6148 139.549 17.6769 140.231 17.9406C140.917 18.2044 141.553 18.6699 142.156 19.3319L142.362 19.5697L142.597 19.8904L142.957 20.3921C142.957 20.1748 142.997 19.9938 143.033 19.8334L143.072 19.6524L143.09 19.4662V13.2396C143.09 11.3881 142.823 11.1243 140.955 10.8606C140.688 10.8606 140.688 10.7261 140.422 10.7261V9.6659C142.423 9.5366 144.424 9.40214 146.426 9.40214V10.4623V32.437V33.3678C146.426 35.2192 146.826 35.7468 148.693 36.145V37.3398ZM142.957 28.072C142.689 27.0119 142.689 25.9515 142.689 24.8913L142.668 24.7674L142.457 23.588C142.378 23.1898 142.285 22.7917 142.168 22.4039C142.03 21.9488 141.859 21.5039 141.635 21.0902C141.48 20.8006 141.3 20.5212 141.089 20.2575C139.755 18.6699 137.486 18.6699 136.419 20.5212C136.018 21.3178 135.618 22.1141 135.485 22.7761C134.818 25.5533 134.818 28.5996 135.218 31.3818C135.351 32.5715 135.618 33.7609 136.152 34.8211C136.442 35.4779 136.889 35.9691 137.409 36.2794C137.64 36.414 137.885 36.5226 138.137 36.5899L138.53 36.657L138.935 36.6674C139.078 36.657 139.222 36.6365 139.364 36.6052C139.992 36.4708 140.599 36.1037 141.089 35.4831C141.324 35.1935 141.533 34.878 141.704 34.5572C141.922 34.1487 142.081 33.7402 142.156 33.3678C142.423 31.7748 142.689 29.9235 142.957 28.072ZM144.157 71.6227V70.5679C142.891 70.2524 142.235 69.9835 141.827 69.4301C141.548 69.0524 141.385 68.5406 141.222 67.7853V57.4576C141.222 57.1782 141.21 56.9041 141.182 56.6352C141.094 55.7716 140.849 54.9648 140.351 54.2615C140.121 53.9355 139.836 53.6304 139.487 53.3565C137.086 51.3704 133.617 52.0325 131.749 54.8097L131.603 55.1819L131.504 55.3683C131.427 55.4974 131.334 55.6163 131.216 55.7354C131.148 55.7354 131.115 55.6992 131.082 55.6681C131.049 55.637 131.015 55.6061 130.948 55.6061V43.9542C130.374 43.9542 129.801 43.9645 129.227 43.9852C127.873 44.0267 126.52 44.1145 125.167 44.2025L124.944 44.2179V45.2782C125.211 45.2782 125.344 45.4127 125.611 45.4127C127.346 45.5421 127.613 45.9401 127.613 47.5278V68.4475C127.613 68.9905 127.501 69.4508 127.266 69.8077C127.208 69.8955 127.144 69.973 127.072 70.0455C126.936 70.1851 126.772 70.2988 126.581 70.3868C126.379 70.4747 126.145 70.537 125.878 70.5679C124.944 70.6972 124.811 70.9608 125.078 71.7573H133.617V70.6972C133.483 70.5679 133.35 70.5679 133.217 70.5679C131.482 70.2988 131.082 69.7714 131.082 68.1837V64.8737C131.216 62.7535 131.082 60.7674 131.348 58.6522C131.482 56.7954 132.416 54.9441 134.15 54.0184C135.752 53.0875 137.486 53.7493 137.887 55.6061C138.02 56.1335 138.153 56.7954 138.153 57.4576V70.6972V71.6227H144.157ZM51.2941 9.6659H59.1658V10.7261C58.9581 10.7933 58.7138 10.8657 58.4525 10.9123C58.2108 10.9588 57.9548 10.9898 57.6981 10.9898C56.898 11.1243 56.4976 11.6518 56.3639 12.5776V13.5033V31.2474C56.3639 33.3626 56.898 35.2192 58.766 36.4089C62.5015 38.5292 67.1713 36.145 67.305 31.7748C67.3583 29.3338 67.3689 26.8928 67.3623 24.4518L67.3349 19.5956L67.305 13.5033C67.305 11.7863 66.3706 11.1243 64.2365 10.8554V9.80036H71.8412V10.8554L71.7225 10.8657C71.6615 10.8761 71.6185 10.8968 71.5755 10.9174C71.5082 10.9537 71.4412 10.9898 71.3075 10.9898C70.5329 11.1191 69.9772 11.3415 69.5792 11.7139C69.1544 12.1121 68.9102 12.6862 68.7726 13.5033L68.7517 13.8239L68.7134 14.1291L68.6567 14.6049L68.6392 14.9617V31.5111C68.5055 35.6176 66.1043 37.9964 62.1015 38.2653C60.7671 38.3946 59.2995 38.2653 57.9651 37.9964C54.3626 37.0707 52.4948 34.5572 52.4948 30.5854V14.1653C52.4948 13.9688 52.4948 13.7412 52.4784 13.493C52.4615 13.2447 52.4283 12.9758 52.361 12.712C52.2797 12.3862 52.0974 12.1121 51.9071 11.8277C51.7873 11.6467 51.6641 11.4605 51.5612 11.2536C51.5612 10.7261 51.4274 10.1934 51.2941 9.6659ZM77.3118 21.5817V18.1372H76.5547L74.8986 18.1216C74.066 18.1061 73.2693 18.0699 72.5081 18.0027C71.4412 18.0027 71.4412 18.2716 71.7082 19.1973C72.1083 19.1973 72.5083 19.1973 72.7754 19.3267C73.9761 19.461 74.2431 19.9886 74.2431 21.0488V34.2883C74.2431 35.2142 73.7096 35.8761 72.7754 36.145C72.6099 36.1967 72.4437 36.2278 72.288 36.2587L72.2471 36.2639C72.0418 36.3003 71.8547 36.3363 71.7082 36.4089V37.469H80.2473V36.5381C78.9553 36.1814 78.2811 35.9796 77.9338 35.4572C77.6354 35.0123 77.5788 34.3246 77.5788 33.0989C77.5788 32.1576 77.5488 31.2165 77.5313 30.2647C77.5124 29.2045 77.5084 28.1238 77.5788 27.0065L77.5976 26.2929L77.6609 25.4964C77.7274 24.8706 77.8329 24.2191 77.9789 23.5674C78.1821 22.8279 78.4537 22.1243 78.8635 21.5039C79.2614 20.904 79.7907 20.3817 80.5138 19.9886C81.1568 19.5645 81.8427 19.4146 82.4505 19.518C83.3569 19.6783 84.0904 20.3919 84.2499 21.5817C84.5164 22.2436 84.5164 22.9054 84.5164 23.6967V36.5381V37.469H90.5205V36.9363L90.4405 36.8277L90.4039 36.7345L90.391 36.657L90.3876 36.5381C89.9361 36.4399 89.5648 36.3569 89.2592 36.269C89.0013 36.1916 88.7902 36.1141 88.618 36.0261C88.3237 35.8709 88.1419 35.6743 88.03 35.3901C87.8715 34.9866 87.8521 34.4022 87.8521 33.497V23.6967C87.8521 22.771 87.8521 21.9745 87.5856 21.0488C87.185 19.5956 86.2514 18.4009 84.6501 18.0027C82.115 17.2114 79.8467 18.2716 78.2459 20.6508C77.9789 20.9195 77.8453 21.4471 77.5788 21.7108C77.4451 21.7108 77.4451 21.5817 77.3118 21.5817ZM176.846 66.8598C177.002 66.8598 177.113 66.8132 177.205 66.7769C177.269 66.7512 177.324 66.7305 177.38 66.7305H178.047C177.987 67.0251 177.942 67.3252 177.902 67.625L177.821 68.2818L177.815 68.3284L177.75 68.8664C177.67 69.5075 177.57 70.1335 177.38 70.7023C177.113 72.1555 175.912 72.8175 174.445 72.8175C173.684 72.8175 173.03 72.6056 172.522 72.2176C172.269 72.0262 172.053 71.7884 171.877 71.5143C171.723 71.2712 171.599 70.9971 171.509 70.7023C171.427 70.5368 171.395 70.3765 171.351 70.1489L171.242 69.642L171.056 69.9266L170.791 70.3195L170.575 70.5679C169.523 72.2537 167.636 72.9211 165.838 72.8848C164.672 72.8641 163.543 72.5486 162.703 72.0262C160.568 70.4333 160.435 66.9942 162.436 64.8737C164.037 63.2859 165.905 62.4896 168.04 61.5637C168.539 61.3984 169.038 61.2329 169.537 61.0363C169.839 60.9174 170.14 60.7881 170.442 60.6383C170.708 60.5037 170.976 60.24 170.976 59.9763C170.976 58.6522 170.976 57.3283 170.842 56.1389C170.708 54.6804 169.908 54.0184 168.574 53.7545C166.973 53.4908 165.505 53.8839 164.171 55.208C164.76 55.3528 165.151 55.6061 165.402 55.9318C165.834 56.4853 165.856 57.2403 165.772 57.9902C165.638 59.0504 164.838 59.8417 163.771 59.8417C162.837 59.8417 162.169 59.1796 161.902 58.1248C161.636 56.268 162.569 54.2821 164.438 53.4908C166.01 52.6686 167.633 52.4099 169.244 52.6116C170.231 52.7359 171.213 53.0357 172.176 53.4908C172.928 53.8943 173.454 54.4167 173.809 55.027C174.273 55.8181 174.445 56.749 174.445 57.7263V69.1094C174.445 69.3215 174.431 69.5595 174.443 69.7921C174.468 70.2833 174.608 70.7436 175.245 70.8316C176.11 70.9401 176.187 70.2628 176.255 69.6525L176.313 69.244L176.457 68.8248L176.531 68.5716C176.651 68.1319 176.704 67.7648 176.754 67.4286L176.846 66.8598ZM171.242 61.8276C169.508 62.2259 167.906 63.0224 166.706 64.0824C165.105 65.5357 164.571 67.2579 164.971 69.244C165.371 71.3642 167.373 72.0262 168.974 70.7023C169.332 70.4333 169.63 70.0506 169.908 69.6679L170.308 69.1094C171.242 66.8598 171.242 64.4757 171.242 61.8276ZM202.062 62.4946H206.867C206.867 60.1105 206.467 57.9902 205.667 56.1389C203.131 51.5049 197.26 51.1067 194.058 55.3422C192.056 57.9902 191.656 61.0363 191.923 64.0824C192.189 67.1287 193.391 69.7766 196.06 71.6281C198.327 73.2157 200.862 73.4795 203.398 72.1555C203.894 71.8814 204.327 71.5608 204.705 71.204C205.503 70.454 206.053 69.5282 206.423 68.4991C206.724 67.6614 206.904 66.7512 207 65.8046L206.827 65.753L206.461 65.6807L206.142 65.6134L205.931 65.5357C205.866 65.6701 205.832 65.8358 205.8 66.0012C205.766 66.1667 205.732 66.332 205.667 66.4666C205.131 67.7907 204.731 68.9801 203.931 69.9059C202.062 72.1555 198.86 71.7625 197.26 69.3783C196.86 68.8457 196.593 68.3181 196.458 67.7907C196.184 66.7871 196.036 65.8512 195.882 64.8894L195.658 63.5498C195.592 63.3172 195.568 63.1361 195.581 62.9965C195.592 62.8931 195.622 62.8101 195.671 62.7483C195.831 62.5362 196.191 62.4946 196.727 62.4946H202.062ZM202.062 55.213C202.998 56.93 202.998 58.9161 202.998 61.0363C200.596 61.0363 198.194 61.0363 196.06 60.7726C195.925 60.7726 195.658 60.5089 195.658 60.3744C195.925 58.7867 196.06 57.0645 196.593 55.4767C196.787 54.8977 197.258 54.3237 197.81 53.9512C198.019 53.8064 198.239 53.6927 198.46 53.6202C199.929 53.0926 201.396 53.6202 202.062 55.213ZM88.2527 61.8276H82.5151H76.9117C76.9117 64.61 77.1781 67.2579 79.0458 69.5075C80.6473 71.4936 83.9828 71.2297 85.5843 69.1094C86.1725 68.2354 86.5446 67.289 86.966 66.2184L87.4521 65.0083C87.5856 65.0083 87.8521 65.0083 88.3857 65.1376C88.2527 66.9942 87.7184 68.582 86.5179 69.9059C84.2499 72.6882 79.8467 72.952 76.9117 70.5679C73.8425 68.0544 72.7754 64.61 73.0419 60.7726C73.1519 59.7331 73.3298 58.7195 73.6322 57.7524C74.0634 56.3767 74.7461 55.1044 75.8438 54.0184C78.7795 50.7084 83.8493 51.236 86.3842 54.8148C87.5856 56.8008 88.2527 59.1796 88.2527 61.8276ZM84.2499 60.24C84.3829 58.2541 84.2499 56.5319 83.4494 54.8148C83.0023 53.734 82.0974 53.0823 81.1144 52.9271C80.603 52.8497 80.0707 52.9014 79.571 53.103C79.231 53.2376 78.9057 53.434 78.6126 53.7079C78.4328 53.8736 78.2647 54.0648 78.1122 54.2821C76.9117 56.0043 76.778 58.1248 76.9117 60.24H84.2499ZM117.472 27.6687H128.813C128.813 25.4191 128.413 23.2984 127.479 21.5817C125.077 17.0769 119.34 16.415 116.005 20.5212C114.537 22.5071 113.87 24.7569 113.736 27.1411C113.469 30.5802 114.403 33.8902 117.205 36.2744C120.14 38.7931 124.543 38.7931 126.945 36.0105C128.146 34.5522 128.68 32.835 128.946 30.9785C128.667 30.9785 128.498 30.9423 128.361 30.9112L128.305 30.8957C128.206 30.87 128.12 30.8493 128.013 30.8493L127.606 31.9042C127.246 32.8609 126.901 33.7764 126.411 34.5522C124.544 37.3344 120.941 37.3344 119.207 34.8211C117.739 32.5661 117.605 30.1874 117.472 27.6687ZM124.143 20.9195C124.81 22.5071 125.077 24.2293 124.944 26.2154C122.409 26.2154 120.007 26.2154 117.472 26.3445C117.472 24.9224 117.472 23.4434 117.878 22.1091C117.957 21.8556 118.05 21.6074 118.16 21.3644C118.384 20.8729 118.68 20.4126 119.073 19.9886C120.674 18.1372 123.209 18.7991 124.143 20.9195ZM124.01 64.4757H125.211C125.344 66.0685 125.478 67.7853 124.944 69.3783C124.277 71.4936 122.809 72.2901 120.275 72.1555C120.067 72.1399 119.867 72.1089 119.674 72.0676C119.255 71.9746 118.87 71.8193 118.525 71.6022C117.586 71.0178 116.932 70.0041 116.672 68.7162C116.538 68.1837 116.538 67.5218 116.538 66.9942V54.8148V53.7545H114.137C113.87 52.958 114.003 52.56 114.804 52.2962C117.606 51.1067 118.54 48.7225 118.807 45.811L118.852 45.4696L118.911 45.1695C118.949 45.0299 119.001 44.942 119.087 44.8903C119.256 44.7869 119.557 44.818 120.141 44.8851V50.4447C120.141 52.1671 120.141 52.1671 121.875 52.1671H124.677C124.677 52.1671 124.811 52.1671 124.944 52.2962V53.6202H120.007V54.5458V67.9199L120.014 68.2458C120.025 68.4527 120.056 68.675 120.141 68.8455C120.275 69.642 120.674 70.304 121.475 70.4333C122.409 70.7023 123.209 70.1695 123.61 69.5075C123.876 68.582 124.144 67.7853 124.277 66.8598C124.144 66.332 124.01 65.4066 124.01 64.4757ZM159.072 65.6134C158.874 65.5771 158.654 65.5357 158.433 65.5357L158.37 65.6909L158.3 65.9235C158.267 66.0581 158.234 66.1924 158.167 66.327C157.9 66.8598 157.766 67.6511 157.5 68.4475C157.079 69.4868 156.513 70.2367 155.761 70.6972C155.079 71.111 154.245 71.2867 153.23 71.2246C151.762 71.2246 150.428 70.1694 149.761 68.1837C149.661 67.8373 149.574 67.4905 149.497 67.144L149.37 66.4977L149.262 65.8305L149.188 65.2256L149.128 64.5739L149.086 63.829C149.033 62.5 149.099 61.1709 149.227 59.8417C149.494 58.3833 149.894 56.93 150.561 55.6061C150.86 54.9391 151.367 54.396 152.035 54.0235C152.359 53.8425 152.721 53.7029 153.115 53.6097C153.363 53.5477 153.625 53.5065 153.897 53.4858C155.632 53.3512 157.366 54.2821 157.633 55.87C156.565 55.7354 155.765 55.87 155.498 56.93C155.365 57.5921 155.498 58.3833 155.498 59.1796C155.498 59.9709 156.165 60.5037 157.099 60.5037C157.486 60.5037 157.827 60.4364 158.113 60.2916C158.517 60.0848 158.811 59.7226 158.967 59.1796C160.035 56.1335 158.167 52.958 154.831 52.4256C151.362 51.898 148.827 53.2219 146.959 55.9991C143.89 60.5037 144.424 67.2527 148.16 70.6972C150.428 72.8175 153.23 73.3449 155.765 72.2849C157.9 71.3592 159.635 68.3131 159.501 65.665C159.393 65.665 159.262 65.6391 159.119 65.6134H159.072ZM100.794 19.461C100.527 18.7991 100.661 18.4009 101.328 18.0027C103.863 17.0769 104.931 14.9565 105.331 12.3086C105.401 12.0294 105.434 11.7191 105.469 11.3881L105.54 10.7985L105.598 10.4572H106.665V17.8734H111.468V19.3267H106.665V20.2523V33.6263C106.665 34.0248 106.665 34.4229 106.799 34.8157C106.932 35.7468 107.332 36.4089 108.266 36.4089C109.2 36.5381 110.001 36.1398 110.401 35.2142C110.526 34.7797 110.621 34.2883 110.702 33.7816L110.832 32.8557L110.935 32.0387C111.068 31.3767 110.935 30.8439 110.935 30.0528H112.135C112.186 30.7043 112.218 31.3561 112.201 32.0128L112.152 32.8507C112.113 33.2749 112.047 33.7093 111.95 34.1487C111.862 34.5418 111.748 34.94 111.602 35.3485C111.28 36.1814 110.772 36.7968 110.064 37.1948C109.302 37.619 108.309 37.7999 107.065 37.7327C105.331 37.5983 103.863 36.6725 103.463 34.9503C103.32 34.5988 103.254 34.2469 103.223 33.8695C103.196 33.5436 103.196 33.2022 103.196 32.83V20.1232C103.196 19.461 102.929 19.1973 102.262 19.1973C101.728 19.5904 101.328 19.461 100.794 19.461ZM178.447 52.6945V53.8891C180.315 54.4167 180.715 54.6804 181.115 56.4026C181.186 58.6315 181.219 60.8604 181.234 63.0947L181.249 69.1146C181.249 69.549 181.102 69.9266 180.849 70.2162C180.563 70.5472 180.143 70.7643 179.647 70.8316C178.714 70.9662 178.58 71.3642 178.847 72.0262H187.92V70.9662L187.657 70.8989L187.24 70.8264L186.938 70.7798C186.814 70.7591 186.695 70.7386 186.586 70.7023C184.985 70.4384 184.584 69.9059 184.584 68.3181L184.556 66.4304C184.526 65.1013 184.494 63.741 184.584 62.4946C184.636 61.776 184.727 61.0261 184.85 60.2555C184.948 59.6451 185.066 59.0193 185.201 58.3937C185.336 57.7679 185.487 57.1473 185.651 56.537L185.751 56.2008L185.868 55.9009C186 55.601 186.163 55.3165 186.346 55.0475C186.62 54.6442 186.936 54.2667 187.253 53.8891C187.92 52.958 188.72 53.0926 189.52 53.6202C188.054 54.6804 187.653 55.3422 188.054 56.8008C188.189 57.1989 188.358 57.566 188.611 57.835C188.861 58.0938 189.194 58.2541 189.654 58.2541C190.456 58.3885 191.122 57.8609 191.389 57.0645C191.487 56.7388 191.562 56.4283 191.607 56.1284C191.652 55.8441 191.671 55.5697 191.66 55.301C191.633 54.7165 191.468 54.1685 191.122 53.6202C190.854 53.1753 190.478 52.8032 190.05 52.5445C189.201 52.0325 188.138 51.9446 187.253 52.5652C186.872 52.7771 186.558 53.0357 186.274 53.3306C185.906 53.7134 185.59 54.158 185.245 54.6442L185.118 54.8148C184.909 55.0216 184.761 55.2492 184.642 55.4924C184.528 55.725 184.441 55.9682 184.353 56.2164L184.184 56.6663H183.917V52.4306C182.982 52.4979 182.047 52.5342 181.128 52.5702C180.212 52.6013 179.313 52.6324 178.447 52.6945ZM91.5883 19.063V17.7389H97.5922V18.6647V33.492C97.5922 35.3485 97.8595 35.6122 99.7272 36.2744C99.8647 36.3417 99.9665 36.5172 100.087 36.7241C100.202 36.9207 100.334 37.1432 100.528 37.3344H91.5883V36.2744C91.8555 36.1398 92.2554 36.1398 92.5224 36.0105C93.456 35.7468 94.1231 35.0848 94.1231 34.0248V20.6508C94.1231 19.461 93.5898 18.9284 92.3891 18.7991C92.1819 19.1094 92.0548 19.0991 91.8221 19.0732L91.5883 19.063ZM97.0583 13.6378C97.3253 12.9758 97.4589 12.4431 97.5922 12.05C97.5922 11.3881 97.5922 11.1191 97.3253 10.8554C97.0583 9.92966 96.391 9.2677 95.4575 9.2677C94.6567 9.40216 93.9898 9.92966 93.7225 10.7261C93.3227 11.6518 93.3227 12.712 93.9898 13.6378C94.7903 14.8273 96.391 14.8273 97.0583 13.6378Z" fill="#08109F"/>
</svg>
