<svg width="258" height="73" viewBox="0 0 258 73" fill="none" xmlns="http://www.w3.org/2000/svg">
<path fill-rule="evenodd" clip-rule="evenodd" d="M65.6427 38.5139V38.5138V38.5137C65.6386 36.5446 65.6345 34.5756 65.6345 32.6067C65.6345 30.3337 65.6362 28.0606 65.6378 25.7876C65.6417 20.5922 65.6455 15.3968 65.6293 10.2014C65.606 3.75624 61.8135 0.00259051 55.3864 0.00259051C40.2345 0 25.0801 -0.00259051 9.92559 0.00518102C4.60728 0.00777152 0.571264 3.94793 0.446919 9.25589C0.42837 10.0782 0.443949 10.9024 0.459531 11.7268C0.470063 12.284 0.480596 12.8413 0.480596 13.3981C0.481538 18.5631 0.48111 23.7285 0.480682 28.8938C0.479932 37.9331 0.479183 46.9723 0.485777 56.0094C0.488367 61.0635 4.57878 65.1487 9.61991 65.1513C12.989 65.1524 16.3582 65.1545 19.7274 65.1566H19.7279H19.7283C31.9441 65.1642 44.1609 65.1717 56.376 65.1331C60.2048 65.1202 63.1476 63.3042 64.6708 59.7786C65.3469 58.2139 65.5697 56.3539 65.593 54.6235C65.6651 49.2554 65.6539 43.8845 65.6427 38.5139ZM16.1544 21.7551L16.1544 21.7475H10.6418C10.6418 23.2082 10.6301 24.6591 10.6184 26.1027C10.5909 29.5033 10.5637 32.8632 10.691 36.2129C10.699 36.4187 10.7149 36.6202 10.7386 36.8173C11.0506 39.4533 12.7519 41.3188 15.2776 42.4429C18.0261 43.6656 20.8705 43.733 23.7667 43.163C28.111 42.3082 30.6859 39.2281 30.7481 34.8138C30.7714 33.174 30.787 31.5343 30.7896 29.8945C30.7951 27.9663 30.794 26.0381 30.793 24.0995C30.7926 23.3216 30.7921 22.5421 30.7921 21.7603H30.7908V21.7527H25.0916V23.2345C25.0916 24.3044 25.0932 25.3742 25.0947 26.4441C25.0985 29.0424 25.1022 31.6407 25.0839 34.239C25.0632 36.858 23.4829 38.4175 20.8847 38.4667C18.1738 38.5197 16.5724 37.3645 16.2995 35.0117C16.2797 34.8374 16.2671 34.6566 16.262 34.4693C16.1873 31.8644 16.1792 29.2569 16.1711 26.6496C16.1677 25.5465 16.1642 24.4434 16.1558 23.3405C16.1541 23.009 16.1546 22.6787 16.1552 22.3275V22.3272V22.3268C16.1555 22.143 16.1558 21.9535 16.1558 21.7551L16.1544 21.7551ZM46.2264 38.5923C46.0655 38.589 45.9059 38.5781 45.748 38.56C43.436 38.2896 41.475 36.4635 40.9443 34.0548C40.3097 31.1742 41.5609 28.3376 43.996 27.1382C45.1756 26.5573 46.2842 26.4023 47.344 26.674C48.4328 26.9544 49.4697 27.6853 50.4801 28.8676C50.6578 29.0778 51.0205 29.3389 51.2481 29.3699C51.2948 29.3772 51.3358 29.375 51.3686 29.3608C52.4457 28.8938 53.4969 28.3719 54.5456 27.8513L54.546 27.851C54.8642 27.6931 55.1821 27.5352 55.5004 27.3791C53.8136 23.736 50.5701 21.7199 46.6934 21.6641C45.6867 21.649 44.6371 21.7661 43.5608 22.0208C38.2503 23.2798 35.1546 27.4583 35.323 33.1471C35.4734 38.2465 38.8533 42.1934 43.9058 43.243C44.0756 43.2784 44.2473 43.3105 44.4208 43.3392C49.3169 44.15 53.8943 41.8626 55.4538 37.7411C53.9979 37.0339 52.5343 36.3241 50.9333 35.5495L50.9321 35.5517L50.9308 35.5511C49.8661 37.4758 48.4102 38.639 46.2264 38.5923ZM97.8886 1.53977H103.549C103.557 1.66712 103.568 1.79374 103.579 1.9198L103.579 1.91993V1.92005V1.92013V1.92021V1.92029V1.92037V1.92045V1.92052V1.9206V1.92067V1.92074V1.92081V1.92088C103.603 2.20988 103.627 2.49588 103.627 2.78063C103.629 4.87785 103.628 6.97508 103.627 9.07231C103.626 12.3685 103.625 15.6647 103.634 18.9609C103.645 23.0099 102.526 26.5744 98.7279 28.5484C94.5986 30.6959 90.3139 30.6415 86.2339 28.3153C83.532 26.7739 81.9984 24.2093 81.9103 21.1914C81.7743 16.5773 81.8013 11.958 81.8284 7.30482V7.30443V7.30376V7.30309V7.30242V7.30175V7.30107V7.3004V7.29973V7.29905V7.29838V7.29771V7.29703C81.8396 5.39291 81.8507 3.48311 81.8507 1.56568H87.4177C87.4241 1.69403 87.4324 1.82581 87.4409 1.95997L87.441 1.96016C87.46 2.2619 87.4799 2.57567 87.4799 2.88943C87.4817 4.81889 87.48 6.74802 87.4782 8.67706V8.6772V8.67734V8.67748V8.67762V8.67776V8.6779V8.67804V8.67818V8.67832V8.67846V8.67859C87.4751 12.1853 87.4719 15.6918 87.4903 19.1993C87.5084 22.6446 89.5134 24.5513 92.9433 24.4839C95.9794 24.4243 97.8653 22.3804 97.8808 19.0412C97.8992 15.252 97.8954 11.4614 97.8917 7.67129V7.67102V7.67074V7.67047V7.6702V7.66992V7.66965V7.66937V7.6691V7.66883V7.66855V7.66828C97.8901 6.10887 97.8886 4.54955 97.8886 2.99046V1.53977ZM125.058 1.6316H130.249V11.1621C133.031 8.36433 136.109 7.797 139.476 8.71664C141.849 9.36426 143.722 10.7657 145.085 12.8355C148.103 17.4233 147.339 24.0006 143.396 27.5237C140.243 30.3396 134.251 31.3395 130.306 27.2543C130.257 28.0548 130.218 28.6972 130.174 29.4381H125.063C125.058 20.2237 125.058 11.0118 125.058 1.6316ZM135.757 25.0446C139.036 25.0394 141.419 22.5474 141.404 19.1331C141.391 15.8069 138.984 13.3122 135.788 13.307C132.555 13.3018 130.104 15.8716 130.14 19.2341C130.177 22.594 132.549 25.0498 135.757 25.0446ZM166.531 29.4822H171.484V8.89805H168.937H166.487C166.452 9.2869 166.423 9.63233 166.394 9.96303L166.393 9.97223L166.392 9.9816C166.367 10.2699 166.343 10.5474 166.318 10.8332C162.026 8.34886 161.534 8.2012 158.998 8.37477C156.228 8.56388 153.943 9.71406 152.148 11.8098C148.755 15.7681 148.788 22.4205 152.197 26.5265C155.596 30.6195 160.427 31.0106 166.29 27.6171C166.345 28.0402 166.398 28.4497 166.45 28.8591L166.531 29.4822ZM155.031 19.1694C155.034 15.7992 157.492 13.2916 160.775 13.3019C164.031 13.3123 166.531 15.8847 166.513 19.2057C166.497 22.4982 163.927 25.1302 160.741 25.1172C157.511 25.1043 155.029 22.5164 155.031 19.1694ZM165.731 63.5948H162.125V62.1726C162.125 61.1691 162.127 60.1657 162.129 59.1625V59.1622V59.1619V59.1617V59.1614V59.1611V59.1608V59.1606V59.1603V59.16C162.135 56.7534 162.14 54.3474 162.114 51.9401C162.083 49.1113 160.938 47.2151 158.938 46.5104C155.731 45.381 152.296 47.5156 152.04 51.0801C151.864 53.5253 151.877 55.9831 151.891 58.4412C151.897 59.5247 151.903 60.6082 151.892 61.6908C151.889 62.0815 151.89 62.4734 151.891 62.8875V62.8892V62.8908C151.892 63.1072 151.892 63.3296 151.892 63.5612H148.177V62.1416C148.177 61.0917 148.179 60.0416 148.181 58.9914V58.9911V58.9908V58.9906V58.9903V58.99V58.9897V58.9894V58.9891V58.9888C148.185 56.5856 148.189 54.182 148.172 51.7795C148.149 48.4974 146.341 46.3369 143.6 46.2436C140.543 46.1374 138.17 48.2538 138.028 51.479C137.919 53.9301 137.918 56.3862 137.918 58.843V58.8439C137.917 59.8844 137.917 60.925 137.909 61.9654C137.905 62.2999 137.906 62.6344 137.908 62.9893V62.9917C137.908 63.1775 137.909 63.369 137.909 63.5689H134.272V43.4329H137.758V46.1426C139.59 43.7645 141.655 42.6868 144.294 42.8241C146.908 42.9588 148.908 44.0883 150.302 46.3887C152.835 43.2283 156.107 42.2568 159.902 43.0832C163.208 43.8034 165.526 46.4275 165.687 50.0102C165.823 53.1147 165.792 56.2268 165.759 59.3852V59.3865V59.3878V59.3891V59.3904V59.3917V59.393V59.3944V59.3957V59.397C165.745 60.7862 165.731 62.1844 165.731 63.5948ZM176.162 29.4585H181.516C181.516 28.9844 181.516 28.6839 181.514 28.3886C181.514 27.3395 181.511 26.2902 181.508 25.2408C181.5 22.7921 181.492 20.3433 181.537 17.8971C181.586 15.2988 183.456 13.3922 185.873 13.3067C188.531 13.2134 190.187 14.6693 190.389 17.5318C190.503 19.1476 190.497 20.7728 190.49 22.3978C190.488 23.0185 190.485 23.6392 190.49 24.2594C190.499 25.4417 190.496 26.624 190.494 27.8226L190.494 27.8351C190.493 28.3682 190.492 28.9046 190.492 29.4456H195.839C195.839 28.0827 195.847 26.7279 195.855 25.3792C195.874 22.239 195.893 19.1309 195.808 16.0267C195.717 12.6979 194.166 10.1566 190.966 8.86915C187.736 7.56871 184.309 8.33291 181.926 10.7913C181.843 10.8751 181.742 10.9405 181.616 11.0212L181.616 11.0214C181.548 11.0653 181.472 11.1137 181.389 11.1721C181.37 10.7943 181.353 10.4486 181.337 10.1169L181.337 10.1103C181.318 9.72112 181.3 9.35091 181.28 8.97018H176.162V29.4585ZM173.402 60.9554V66.5225V71.9185H169.785V43.4359H173.334L173.373 44.1663L173.412 44.9174L173.415 44.959L173.477 46.1403C175.927 43.5136 178.772 42.4644 182.103 42.9437C184.639 43.3089 186.748 44.5083 188.362 46.5082C191.831 50.8084 191.465 57.4997 187.647 61.3155C184.751 64.2117 178.461 65.9707 173.402 60.9554ZM173.272 53.4223C173.264 57.6836 176.119 60.743 180.111 60.7508C184.116 60.7586 187.028 57.7121 187.043 53.5026C187.059 49.3059 184.134 46.2362 180.129 46.244C176.171 46.2543 173.28 49.2826 173.272 53.4223ZM87.9098 41.8086C91.7748 38.086 99.2977 37.2208 104.52 43.6867L105.083 43.206C105.837 42.5614 106.56 41.9442 107.269 41.3371C103.999 36.2053 96.8807 33.8971 90.6583 35.8504C84.511 37.7803 80.3999 43.6064 80.6615 50.0153C80.9517 57.134 85.2105 62.3461 91.9095 63.7813C97.7796 65.0377 105.038 62.2788 107.269 57.8982L107.117 57.7666C106.756 57.4534 106.387 57.1337 106.015 56.818C105.706 56.5573 105.393 56.3003 105.082 56.0444C104.942 55.9291 104.802 55.814 104.663 55.6989C98.9505 62.4187 90.9485 60.8747 87.529 57.2635C83.5836 53.0954 83.7209 45.842 87.9098 41.8086ZM214.158 63.592H210.791C210.731 62.8123 210.674 62.0688 210.612 61.2658C204.908 65.2033 199.711 65.0142 196.1 60.8202C192.486 56.6236 192.507 49.9478 196.144 45.9817C199.861 41.9276 205.187 41.8421 210.64 45.8704L210.68 45.0001L210.683 44.9498C210.705 44.4543 210.728 43.9699 210.752 43.4482H214.161C214.158 50.124 214.158 56.7868 214.158 63.592ZM210.925 53.6807C211.068 49.6655 208.205 46.3936 204.413 46.246C200.335 46.0854 197.317 48.9686 197.147 53.1834C196.981 57.3204 199.823 60.6285 203.649 60.7502C207.775 60.8824 210.773 57.9732 210.925 53.6807ZM130.997 53.4817C131.005 47.4328 126.412 42.8399 120.345 42.8347C114.175 42.8295 109.561 47.4017 109.584 53.4998C109.602 59.5823 114.143 64.1261 120.236 64.1597C126.373 64.1934 130.989 59.6134 130.997 53.4817ZM120.236 60.7506C116.433 60.7299 113.384 57.5021 113.382 53.4894C113.379 49.4897 116.433 46.2671 120.254 46.2438C124.13 46.2205 127.301 49.4975 127.277 53.5024C127.254 57.5462 124.119 60.7714 120.236 60.7506ZM239.129 68.302C242.851 69.4289 245.849 67.4394 246.227 63.6935C246.254 63.4143 246.111 63.1063 245.976 62.8148L245.976 62.814C245.944 62.746 245.913 62.6789 245.885 62.6132C244.365 59.1198 242.842 55.6281 241.319 52.1367L241.279 52.045L241.242 51.9614C240.192 49.5539 239.142 47.1465 238.093 44.7387C237.984 44.4872 237.886 44.2302 237.767 43.9207C237.703 43.7521 237.633 43.5679 237.551 43.3606C237.924 43.3606 238.288 43.3556 238.645 43.3507C239.578 43.338 240.465 43.3259 241.344 43.4046C241.655 43.4331 242.02 43.9693 242.181 44.3501C243.459 47.3902 244.717 50.44 245.976 53.4893L245.977 53.4919L245.978 53.4945L245.979 53.4977L245.983 53.5075C246.447 54.6303 246.91 55.7531 247.375 56.8753C247.501 57.1813 247.634 57.4834 247.803 57.8669L247.803 57.8685C247.873 58.0267 247.949 58.1988 248.033 58.3907L248.585 56.8585C249.671 53.8503 250.706 50.9832 251.737 48.1142C251.86 47.7702 251.98 47.4254 252.099 47.0807L252.1 47.0784L252.101 47.0743L252.103 47.0709C252.194 46.8088 252.284 46.5468 252.377 46.2853C253.556 42.9772 253.68 42.9072 257.472 43.4953C256.919 44.9611 256.367 46.4234 255.817 47.8834C255.107 49.7648 254.399 51.6422 253.69 53.518C253.288 54.5822 252.887 55.6469 252.487 56.7115L252.487 56.712L252.486 56.7133C251.31 59.8387 250.134 62.9636 248.921 66.0742C248.47 67.2295 247.924 68.3771 247.237 69.403C245.551 71.9261 242.934 72.8147 239.994 72.079C238.986 71.8277 238.499 71.3769 238.803 70.2812C238.911 69.8713 238.968 69.4477 239.028 68.9996L239.028 68.9989L239.028 68.9984L239.029 68.9981C239.059 68.7727 239.09 68.5411 239.129 68.302ZM232.719 63.573H236.229C236.265 63.5284 236.294 63.4963 236.316 63.4721C236.328 63.4594 236.338 63.449 236.345 63.44C236.356 63.4263 236.363 63.4161 236.364 63.4072C236.351 61.9727 236.368 60.5353 236.386 59.0979V59.0972C236.425 55.8287 236.464 52.5601 236.151 49.3252C235.592 43.551 228.351 40.7351 223.678 44.2167C223.304 44.4941 222.965 44.8184 222.57 45.1959L222.57 45.196C222.371 45.386 222.158 45.5895 221.919 45.8073V43.4188H218.44V63.5367H222.015C222.015 62.3672 222.012 61.2081 222.009 60.0563C222.002 57.4884 221.996 54.9566 222.023 52.426C222.062 48.7035 224.403 46.1985 227.722 46.2451C230.805 46.2865 232.703 48.6258 232.719 52.395C232.722 53.4036 232.721 54.4111 232.72 55.4183C232.72 55.9217 232.719 56.425 232.719 56.9283V63.573ZM108.35 8.94752H113.362C113.38 9.26237 113.396 9.56848 113.413 9.89399L113.413 9.8942C113.435 10.2998 113.458 10.7355 113.487 11.2557C115.29 8.75323 117.585 7.97349 120.367 8.39833C121.261 8.53563 121.637 8.86203 121.497 9.8257C121.361 10.7522 121.289 11.6878 121.215 12.6434L121.215 12.6441L121.215 12.6449C121.185 13.0408 121.154 13.4401 121.118 13.8436C120.963 13.8146 120.818 13.7867 120.682 13.7602C120.391 13.7039 120.135 13.6544 119.878 13.6156C116.256 13.069 113.896 14.8979 113.717 18.6023C113.614 20.7421 113.626 22.887 113.638 25.0316V25.0317C113.643 25.9507 113.649 26.8697 113.645 27.7883C113.643 28.1244 113.644 28.4593 113.644 28.8234V28.8253C113.644 29.019 113.645 29.2211 113.645 29.4358H108.352C108.35 22.6822 108.35 15.9182 108.35 9.00256V8.94752Z" fill="black"/>
</svg>
